<?xml version="1.0" encoding="UTF-8"?>
<!DOCTYPE svg PUBLIC "-//W3C//DTD SVG 1.1//EN" "http://www.w3.org/Graphics/SVG/1.1/DTD/svg11.dtd">
<!-- Creator: CorelDRAW 2020 (64-Bit Evaluation Version) -->
<svg xmlns="http://www.w3.org/2000/svg" xml:space="preserve" width="1114px" height="1300px" version="1.1" style="shape-rendering:geometricPrecision; text-rendering:geometricPrecision; image-rendering:optimizeQuality; fill-rule:evenodd; clip-rule:evenodd"
viewBox="0 0 111400 129967"
 xmlns:xlink="http://www.w3.org/1999/xlink"
 xmlns:xodm="http://www.corel.com/coreldraw/odm/2003">
 <defs>
  <style type="text/css">
   <![CDATA[
    .fil1 {fill:#1E58D4;fill-rule:nonzero}
    .fil0 {fill:#6E99F5;fill-rule:nonzero}
    .fil2 {fill:#BDDAE6;fill-rule:nonzero}
   ]]>
  </style>
 </defs>
 <g id="Layer_x0020_1">
  <metadata id="CorelCorpID_0Corel-Layer"/>
  <g id="Group_91" data-name="Group 91">
   <path id="Path_567" class="fil0" d="M47563 104671c-2178,-2949 -4640,-5705 -7306,-8225 -110,-89 -264,-107 -395,-45 -15,7 -31,15 -46,24 -110,66 -181,181 -191,308 -284,3778 158,7588 1307,11200 8,21 19,43 30,62 106,176 334,233 510,128 57,-35 104,-84 136,-142 1530,-3312 3446,-6479 4834,-9845 28,-88 16,-184 -32,-264 -15,-25 -34,-49 -56,-69 -96,-85 -229,-113 -351,-73 -3121,1372 -6225,2915 -9183,4612 1,-3 -1,-2 -2,-1 -111,67 -182,185 -187,315 -1,61 14,122 46,174 31,53 77,95 132,122 3314,1159 6933,1361 10332,2269 449,119 653,-573 207,-693 -3338,-890 -6908,-1072 -10159,-2212l-11 614c2903,-1661 5933,-3192 8999,-4532l-440 -408c-1363,3307 -3255,6418 -4759,9676l676 48c-1136,-3545 -1570,-7296 -1287,-11010l-631 272c2620,2473 5044,5184 7187,8082 267,350 917,-34 646,-389l-6 2z" data-name="Path 567"/>
   <circle id="Ellipse_25" class="fil0" cx="18277" cy="93405" r="1451" data-name="Ellipse 25"/>
   <circle id="Ellipse_30" class="fil0" cx="70206" cy="25230" r="1451" data-name="Ellipse 30"/>
   <circle id="Ellipse_29" class="fil0" cx="20888" cy="58012" r="2031" data-name="Ellipse 29"/>
   <circle id="Ellipse_28" class="fil0" cx="58602" cy="101818" r="2321" data-name="Ellipse 28"/>
   <circle id="Ellipse_27" class="fil0" cx="49028" cy="65555" r="2031" data-name="Ellipse 27"/>
   <circle id="Ellipse_32" class="fil0" cx="70786" cy="65555" r="2031" data-name="Ellipse 32"/>
   <circle id="Ellipse_31" class="fil0" cx="95445" cy="41476" r="2031" data-name="Ellipse 31"/>
   <circle id="Ellipse_26" class="fil0" cx="10880" cy="47423" r="1015" data-name="Ellipse 26"/>
   <g id="Group_25" data-name="Group 25">
    <g>
     <path id="Path_445" class="fil0" d="M37952 81957c-2367,-1346 -7293,-215 -9045,1761 -734,-1961 -566,-3113 -2901,-4154 -1274,-496 -2826,-659 -4155,-76 -87,-2611 -632,-5802 -3971,-6382 992,-2550 1793,-5144 90,-7627 1160,76 2303,340 3638,154 1471,-351 2466,-1213 3649,-2031 1596,2954 4204,3264 7253,2980 406,3371 2837,4435 5715,5306 -632,3130 -2611,7339 -267,10069l-6 0zm0 0l0 0 0 0z" data-name="Path 445"/>
    </g>
    <path id="Path_446" class="fil1" d="M21962 69184c6014,3258 10586,8332 15575,12889 415,377 1033,-235 618,-615 -5047,-4610 -9675,-9733 -15755,-13026 -493,-266 -931,485 -438,752l0 0zm3858 -1584c17,1224 273,2416 435,3626 58,456 786,461 726,0 -163,-1210 -418,-2402 -436,-3626 0,-201 -162,-363 -362,-363 -200,0 -363,162 -363,363l0 0zm4993 1595c55,1863 -64,3723 -73,5585 0,200 163,362 363,362 200,0 362,-162 362,-362 0,-1863 128,-3722 73,-5585 -8,-194 -168,-348 -363,-348 -194,0 -354,154 -362,348l0 0zm-8848 4207c1984,-87 3957,-340 5947,-363 200,0 362,-162 362,-362 0,-201 -162,-363 -362,-363 -1990,23 -3963,276 -5947,363 -468,20 -470,745 0,725zm2901 4206c229,0 475,6 710,6 2311,0 4634,-179 6917,-526 458,-67 264,-766 -195,-699 -2202,326 -4440,501 -6667,501 -257,0 -524,-6 -775,-6 -202,-1 -365,161 -365,362 0,200 163,362 363,362l12 0z" data-name="Path 446"/>
   </g>
   <g id="Group_56" data-name="Group 56">
    <g>
     <path id="Path_445-2" class="fil0" d="M81463 39022c2368,-1347 7294,-215 9046,1760 734,-1961 566,-3112 2901,-4154 1273,-496 2826,-658 4154,-75 87,-2611 633,-5802 3972,-6383 -992,-2550 -1793,-5143 -90,-7626 -1161,75 -2304,339 -3638,153 -1471,-351 -2466,-1212 -3650,-2030 -1595,2953 -4203,3263 -7252,2979 -407,3371 -2838,4436 -5715,5306 632,3130 2611,7340 266,10070l6 0zm0 0l0 0 0 0z" data-name="Path 445"/>
    </g>
    <path id="Path_446-2" class="fil1" d="M97454 26248c-6014,3258 -10586,8332 -15576,12890 -415,377 -1033,-235 -618,-615 5048,-4610 9675,-9734 15756,-13026 493,-267 931,484 438,751l0 0z" data-name="Path 446"/>
    <path id="Path_447-2" class="fil1" d="M93595 24664c-17,1224 -272,2417 -435,3627 -58,455 -786,461 -725,0 162,-1210 418,-2403 435,-3627 0,-200 162,-362 363,-362 200,0 362,162 362,362l0 0z" data-name="Path 447"/>
    <path id="Path_448-2" class="fil1" d="M88603 26260c-55,1862 64,3722 72,5584 0,201 -162,363 -362,363 -201,0 -363,-162 -363,-363 0,-1862 -128,-3722 -72,-5584 7,-195 167,-349 362,-349 195,0 355,154 363,349z" data-name="Path 448"/>
    <path id="Path_449-2" class="fil1" d="M97451 30466c-1984,-87 -3957,-339 -5947,-362 -200,0 -363,-163 -363,-363 0,-200 163,-363 363,-363 1990,24 3963,276 5947,363 467,20 470,746 0,725z" data-name="Path 449"/>
    <path id="Path_450-2" class="fil1" d="M94550 34673c-229,0 -476,5 -711,5 -2311,0 -4633,-179 -6916,-526 -458,-66 -264,-766 194,-699 2203,327 4441,501 6668,501 256,0 524,-5 775,-5 202,-1 364,161 364,361 0,200 -162,363 -362,363l-12 0z" data-name="Path 450"/>
   </g>
   <g id="Group_38" data-name="Group 38">
    <g id="Group_39" data-name="Group 39">
     <path id="Path_379" class="fil2" d="M65956 39970l-4978 17377 525 -290c-10070,-2556 -19930,-5857 -29919,-8703l290 522 5124 -16892 -525 290 26028 7180 3745 1032c34,9 69,13 103,13 236,0 428,-191 428,-427 0,-189 -124,-355 -305,-409l-26019 -7180 -3748 -1033c-36,-9 -72,-14 -108,-14 -190,0 -359,123 -417,304l-5121 16893c-9,36 -14,74 -14,112 0,189 123,357 304,413 9989,2840 19852,6141 29919,8703 36,10 74,15 112,15 189,0 357,-124 413,-305l4978 -17377c7,-30 10,-60 10,-91 0,-235 -191,-426 -427,-426 -183,0 -345,117 -404,290l6 3zm-3385 2304c913,0 913,-1422 0,-1422 -914,0 -917,1422 0,1422zm-27415 5784c913,0 916,-1421 0,-1421 -917,0 -917,1421 0,1421zm3672 -12471c914,0 917,-1422 0,-1422 -916,0 -916,1422 0,1422zm7093 5860c914,0 914,-1422 0,-1422 -913,0 -916,1422 0,1422zm1048 -3452c913,0 913,-1422 0,-1422 -914,0 -917,1422 0,1422zm-8965 1325c917,0 917,-1421 0,-1421 -916,0 -916,1421 0,1421zm7372 7357c917,0 917,-1421 0,-1421 -917,0 -917,1421 0,1421zm-7815 -2590c916,0 916,-1422 0,-1422 -917,0 -917,1422 0,1422zm6025 6620c914,0 914,-1422 0,-1422 -914,0 -917,1422 0,1422zm8561 -2202c914,0 917,-1421 0,-1421 -917,0 -917,1421 0,1421zm9356 2774c914,0 917,-1422 0,-1422 -917,0 -917,1422 0,1422zm-1854 3466c917,0 917,-1421 0,-1421 -917,0 -914,1421 0,1421zm-8401 -2245c914,0 914,-1422 0,-1422 -914,0 -917,1422 0,1422zm5521 -2382c913,0 916,-1421 0,-1421 -917,0 -917,1421 0,1421zm-17218 -1520c913,0 916,-1422 0,-1422 -917,0 -917,1422 0,1422zm2431 -8784c914,0 916,-1422 0,-1422 -917,0 -917,1422 0,1422zm12219 -172c914,0 917,-1421 0,-1421 -917,0 -917,1421 0,1421zm-490 3865c917,0 917,-1422 0,-1422 -917,0 -917,1422 0,1422zm7734 2143c914,0 914,-1421 0,-1421 -914,0 -917,1421 0,1421zm-4294 -1656c914,0 917,-1422 0,-1422 -916,0 -916,1422 0,1422zm-14305 -7134c914,0 917,-1421 0,-1421 -916,0 -916,1421 0,1421zm-1561 8257c914,0 914,-1422 0,-1422 -913,0 -916,1422 0,1422zm14622 8772c914,0 914,-1421 0,-1421 -914,0 -917,1421 0,1421zm2852 -13051c913,0 913,-1422 0,-1422 -914,0 -917,1422 0,1422z" data-name="Path 379"/>
    </g>
    <path id="Path_381" class="fil0" d="M65466 47945c-10714,-2970 -21332,-6292 -32045,-9263 -885,-246 -1262,1126 -380,1369 10716,2974 21331,6293 32048,9266 870,244 1259,-1125 377,-1372zm-14444 -12994l-5933 19290c-270,870 1102,1253 1369,380l5936 -19292c267,-871 -1103,-1251 -1373,-378l1 0zm1177 723c111,-386 229,-772 363,-1161 61,-174 125,-348 191,-519 32,-81 61,-162 96,-241 18,-38 33,-78 47,-119l26 -61 -29 70c253,-600 555,-1186 893,-1741 151,-247 313,-488 484,-720 38,-55 79,-107 116,-159 -171,232 0,0 41,-47l249 -290c166,-185 340,-365 523,-534 87,-84 177,-162 270,-240l127 -105 64 -52c-33,24 -65,49 -96,76l47 -38c337,-257 703,-476 1087,-655l131 -61 -90 38 81 -32 270 -99c177,-58 358,-108 540,-148l270 -50 64 1c121,-21 -186,20 -111,0l143 -18c168,-18 338,-27 507,-27 170,0 339,9 508,27l-58 0 122 21 241 49c150,38 290,84 449,136l105 41 52 20 -96 -40c70,31 137,61 203,95 133,66 262,141 386,221l183 125 40 32 -93 -73 88 73c102,90 199,187 290,289 46,50 93,105 136,157 99,119 -125,-165 -43,-58l63 87c75,109 142,224 200,342 15,30 30,56 41,85 6,15 13,29 20,43 38,81 -87,-212 -49,-110 38,101 49,122 67,186 37,122 67,247 87,374 -55,-325 0,-79 0,17l0 195c0,10 1,21 1,32 0,56 -6,113 -19,168 32,-308 15,-84 0,23 -31,135 -73,268 -124,397 -35,93 89,-203 46,-110l-20 47c-15,34 -32,66 -50,101 -34,68 -72,136 -113,200 -43,70 -87,137 -136,201 -11,16 -22,31 -35,46 -52,72 139,-174 67,-84l-81 96c-115,135 -242,264 -374,382 -73,67 -145,128 -224,189 -78,61 -142,101 76,-55l-58 43 -128 90c-387,267 -800,498 -1230,685 -64,29 -290,122 -23,0l-191 78 -401 151c-290,102 -580,192 -870,273 -683,184 -1381,333 -2080,438l-290 41 -145 20c-113,18 78,0 81,0l-108 0c-211,29 -423,52 -635,75 -441,47 -885,81 -1326,110 -441,29 -966,50 -1450,61 -393,0 -711,319 -711,711 0,393 318,711 711,711 1815,-23 3633,-221 5411,-581 1213,-235 2385,-657 3469,-1246 780,-417 1442,-1027 1920,-1771 299,-493 457,-1061 457,-1638 0,-166 -13,-333 -39,-496 -114,-647 -418,-1246 -871,-1721 -495,-519 -1108,-912 -1787,-1146 -537,-194 -1106,-294 -1678,-294 -164,0 -329,8 -492,25 -899,86 -1769,372 -2543,838 -942,594 -1757,1373 -2394,2286 -803,1135 -1437,2390 -1871,3712 -131,375 -249,755 -357,1135 -12,53 -18,107 -18,161 0,392 318,710 710,710 309,0 583,-199 677,-493l0 -3zm-232 127c540,-3313 871,-10385 -3208,-11763 -1779,-604 -4543,290 -5274,2126 -752,1880 780,3859 1949,5181 1596,1805 3525,3215 5344,4770 693,580 1703,-409 1006,-1007 -1543,-1317 -9515,-6884 -6347,-9141 5350,-3812 5622,6640 5158,9457 -145,894 1224,1280 1372,377z" data-name="Path 381"/>
   </g>
   <g id="Group_42" data-name="Group 42">
    <path id="Path_169" class="fil0" d="M58538 80300c-16,-241 -27,-480 -23,-703 -1196,-699 -2494,-1212 -3843,-1524 -152,1173 -103,2368 146,3525 1244,-395 2496,-803 3720,-1298zm-3189 3141c163,428 351,852 562,1259 938,2071 3664,776 3267,-852 -132,-531 -252,-1072 -361,-1594 -1138,431 -2306,807 -3468,1187zm3666 -5734l40 -58c-293,-1531 -657,-3050 -1024,-4567 -877,431 -1633,1078 -2194,1879 -273,390 -499,815 -669,1260 1343,319 2642,818 3848,1487l-1 -1zm854 -5135c366,1520 731,3039 1034,4571 71,40 141,83 207,130 183,128 346,282 484,456 836,-1069 1667,-2143 2515,-3200 -1148,-1298 -2528,-2136 -4240,-1957zm6917 6306c-216,-451 -440,-906 -682,-1375 -242,-468 -532,-946 -817,-1391 -898,1130 -1782,2275 -2684,3405 488,1139 874,2425 1220,3307l13 30c736,-861 1441,-1764 2093,-2694 295,-420 584,-854 858,-1283l-1 1zm3867 9400c-448,-984 -829,-1833 -1058,-2394 -1079,1152 -2150,2310 -3133,3542 243,600 608,1477 1052,2487 1011,-1239 2092,-2422 3139,-3635zm1899 4181c-333,-748 -683,-1518 -1026,-2273 -1065,1213 -2141,2415 -3125,3692 359,765 735,1545 1132,2313 1029,-1230 2049,-2463 3019,-3732zm-2055 5561c979,1666 1563,1606 2770,884 996,-479 1562,-925 447,-3730 -89,-224 -189,-464 -292,-713 -953,1205 -1937,2379 -2925,3559zm-1684 -14084c-379,-989 -741,-1980 -1139,-2985 -170,259 -352,531 -532,788 -766,1093 -1614,2129 -2529,3097 350,919 708,1853 1008,2597 1020,-1203 2110,-2344 3192,-3497z" data-name="Path 169"/>
    <path id="Path_178" class="fil0" d="M56235 84554c-1482,-2961 -2073,-7073 223,-9812 1050,-1256 2811,-2055 4461,-1789 1948,314 3292,2074 4256,3652 1779,2904 2745,6191 4046,9316 918,2197 1959,4342 2932,6516 576,1196 1089,2442 1530,3697 168,518 489,1402 145,1923 -219,342 -774,580 -1132,742 -1283,578 -1808,-769 -2340,-1775 -870,-1656 -1682,-3339 -2434,-5049 -840,-1903 -1658,-3826 -2409,-5763 -938,-2416 -1678,-4995 -2796,-7335 -422,-872 -1044,-2021 -2089,-2231 -842,-169 -1677,383 -2083,1094 -730,1280 -386,3073 -122,4435 167,861 776,2058 52,2793 -724,735 -1794,430 -2250,-430 -217,-405 -872,-106 -652,302 473,884 1270,1451 2308,1227 533,-104 1007,-412 1319,-858 186,-265 308,-570 357,-890 71,-736 -286,-1557 -425,-2270 -204,-1056 -411,-2208 -185,-3274 250,-1183 1405,-1894 2326,-878 547,604 883,1433 1183,2181 2330,5815 4347,11672 7255,17243 432,832 1000,2170 2046,2377 728,146 1599,-372 2165,-767 1895,-1327 -185,-4683 -847,-6184 -1222,-2769 -2568,-5488 -3685,-8305 -1386,-3503 -2498,-7425 -5105,-10264 -2354,-2567 -6144,-2636 -8423,135 -2431,2953 -1890,7337 -287,10526 206,413 861,113 653,-301l7 16z" data-name="Path 178"/>
   </g>
  </g>
 </g>
</svg>
