<svg xmlns="http://www.w3.org/2000/svg" width="50.806" height="28.67" viewBox="0 0 50.806 28.67">
  <g id="Layer_2" data-name="Layer 2" transform="translate(0)">
    <g id="Layer_3" data-name="Layer 3" transform="translate(0)">
      <g id="Asii">
        <path id="Path_1" data-name="Path 1" d="M14.358,12.863a5.028,5.028,0,0,1,.882.665,7.854,7.854,0,0,0,.943.538,6.373,6.373,0,0,0,2.41.557h.632a6.835,6.835,0,0,0,2.8-.745,8.162,8.162,0,0,1-1.934,2.533,5.644,5.644,0,0,1-3.113,1.373h-.17c-2.132,0-2.462-1.821-2.462-3.948Zm.175-1.948c-.222.3-1.524,2.137-1.66,2.236a14.406,14.406,0,0,1-1.038-1.887,6.241,6.241,0,0,1-.5-2.358V8.561a6.6,6.6,0,0,1,.684-2.976A8.019,8.019,0,0,1,12.656,4.4,9.231,9.231,0,0,0,13.33,3.3l-1.59-.764a14.877,14.877,0,0,0-.92,1.75C10.646,4.736,9.939,5.84,9.877,6h-.17L5.877,0,4.491.472,6.6,3.646l-.943.538a20.057,20.057,0,0,0-2.226-3c-.132.406-.906.623-.915,1.17L4.915,5l-.594.741L1.712,3.2l-.042.057L.943,4.618c.292.425,2.7,2.042,2.7,2.292a2.83,2.83,0,0,1-.34.745L.429,5.835A7.5,7.5,0,0,0,0,7.311c0,.061,2.788,1.764,3.08,1.958a25.344,25.344,0,0,1,2.858,2.118c.835.811,1.783,1.5,2.627,2.358s1.651,1.679,2.42,2.561a32.915,32.915,0,0,0-2.5,5.712c-.316,1.047-.651,2.042-.943,3.179a24.339,24.339,0,0,0-.66,3.4h7.189l-.189-1.236v-.8c0-.406.165-1.887.472-1.887h1.033l3.146.066-.071.736v.288a10.109,10.109,0,0,0,.4,2.835H21.1l6,.075c-.156-.7-.736-1.821-1-2.613-.3-.887-.656-1.783-.9-2.712s-.557-1.958-.717-2.887a27.6,27.6,0,0,1-.514-3,16.98,16.98,0,0,0,1.538-.755c.509-.255,1-.472,1.514-.712a27.8,27.8,0,0,1,3.165-1.316,33.328,33.328,0,0,1,7.075-1.887V11.6l-2.745.519a3.5,3.5,0,0,1-.057-.406v-.4l2.679-.774-.165-1.226-2.731,1L33.92,9.5l2.717-1.212-.552-1.085L33.533,8.623c-.113-.08-.575-.571-.575-.693a23.869,23.869,0,0,1,2.514-1.6,6.1,6.1,0,0,0-.915-.858c-.142,0-2.358,1.415-2.708,1.585-.585.307-2.217,1.443-2.67,1.561a7.933,7.933,0,0,1-.25-.892c-.057-.316-.094-.665-.137-.943a18.055,18.055,0,0,0-.358-1.821H26.547a13.463,13.463,0,0,0,.377,1.34,7.406,7.406,0,0,1,.255,1.462v.472a6.292,6.292,0,0,1-3.608,5.382c0-.882-.175-2-.17-2.92V7.66c0-.9-2.3-2.858-3.2-2.858a52.279,52.279,0,0,0-3.877,3.962,22.453,22.453,0,0,0-1.788,2.156Z" transform="translate(0)" fill="#fff"/>
        <path id="Path_2" data-name="Path 2" d="M66.635,37.165c0-1.236.8-1.66,2.057-1.66h5.16V33.33h-5.66c-2.325,0-3.66,1.08-3.66,3.377v1.146a2.887,2.887,0,0,0,3.047,3.09c2,.028,4.637-.557,4.637,1.415v.17a1.413,1.413,0,0,1-1.6,1.547h-5.66V46.25h5.925c2.358,0,3.491-1.354,3.491-3.722v-.344c0-6.344-7.736-1.052-7.736-4.906Z" transform="translate(-34.088 -17.608)" fill="#fff"/>
        <rect id="Rectangle_1" data-name="Rectangle 1" width="2.745" height="12.929" transform="translate(48.061 15.722)" fill="#fff"/>
        <rect id="Rectangle_2" data-name="Rectangle 2" width="2.689" height="12.929" transform="translate(42.509 15.722)" fill="#fff"/>
      </g>
    </g>
  </g>
</svg>
