<?xml version="1.0" encoding="UTF-8"?>
<!DOCTYPE svg PUBLIC "-//W3C//DTD SVG 1.1//EN" "http://www.w3.org/Graphics/SVG/1.1/DTD/svg11.dtd">
<!-- Creator: CorelDRAW 2020 (64-Bit Evaluation Version) -->
<svg xmlns="http://www.w3.org/2000/svg" xml:space="preserve" width="800px" height="600px" version="1.1" style="shape-rendering:geometricPrecision; text-rendering:geometricPrecision; image-rendering:optimizeQuality; fill-rule:evenodd; clip-rule:evenodd"
viewBox="0 0 80000 60000"
 xmlns:xlink="http://www.w3.org/1999/xlink"
 xmlns:xodm="http://www.corel.com/coreldraw/odm/2003">
 <defs>
  <style type="text/css">
   <![CDATA[
    .str3 {stroke:#2F8C5A;stroke-width:156;stroke-miterlimit:22.9256}
    .str0 {stroke:#272525;stroke-width:313;stroke-miterlimit:22.9256}
    .str1 {stroke:#272525;stroke-width:156;stroke-linecap:round;stroke-linejoin:round;stroke-miterlimit:22.9256}
    .str2 {stroke:#272525;stroke-width:234;stroke-linecap:round;stroke-linejoin:round;stroke-miterlimit:22.9256}
    .fil7 {fill:none;fill-rule:nonzero}
    .fil23 {fill:#1C1E1E;fill-rule:nonzero}
    .fil3 {fill:#1E1E1B;fill-rule:nonzero}
    .fil29 {fill:#252A3F;fill-rule:nonzero}
    .fil9 {fill:#272525;fill-rule:nonzero}
    .fil2 {fill:#31312D;fill-rule:nonzero}
    .fil10 {fill:#3B4263;fill-rule:nonzero}
    .fil6 {fill:#494E72;fill-rule:nonzero}
    .fil18 {fill:#4D825F;fill-rule:nonzero}
    .fil16 {fill:#634C47;fill-rule:nonzero}
    .fil4 {fill:#6E99F5;fill-rule:nonzero}
    .fil5 {fill:#747699;fill-rule:nonzero}
    .fil8 {fill:#9A614F;fill-rule:nonzero}
    .fil24 {fill:#BC2222;fill-rule:nonzero}
    .fil1 {fill:#BDDAE6;fill-rule:nonzero}
    .fil11 {fill:#BFFAE6;fill-rule:nonzero}
    .fil21 {fill:#D1897D;fill-rule:nonzero}
    .fil0 {fill:#D9D9DD;fill-rule:nonzero}
    .fil19 {fill:#DA3636;fill-rule:nonzero}
    .fil22 {fill:#DB9A8D;fill-rule:nonzero}
    .fil17 {fill:#E24444;fill-rule:nonzero}
    .fil20 {fill:#E2AEA1;fill-rule:nonzero}
    .fil27 {fill:#EAD9BE;fill-rule:nonzero}
    .fil25 {fill:#F2C3B6;fill-rule:nonzero}
    .fil26 {fill:#F2C757;fill-rule:nonzero}
    .fil14 {fill:#FF3050;fill-rule:nonzero}
    .fil15 {fill:#FF4050;fill-rule:nonzero}
    .fil13 {fill:#FF5656;fill-rule:nonzero}
    .fil28 {fill:#FFC7C7;fill-rule:nonzero}
    .fil12 {fill:white;fill-rule:nonzero}
   ]]>
  </style>
     <clipPath id="id0" style="clip-rule:nonzero">
      <path d="M38168 1953l5681 -1432 1666 6495 -6606 1508 -741 -6571z"/>
     </clipPath>
     <clipPath id="id1" style="clip-rule:nonzero">
      <path d="M39080 521l5859 20 4 6705 -6774 -177 911 -6548z"/>
     </clipPath>
 </defs>
 <g id="Layer_x0020_1">
  <metadata id="CorelCorpID_0Corel-Layer"/>
  <g id="ilustratie_" data-name="ilustratie ">
   <g id="OBJECTS">
    <path id="Path_568" class="fil0" d="M77810 51600c0,1239 -8193,2244 -18301,2244 -10108,0 -18301,-1005 -18301,-2244 0,-1239 8194,-2244 18301,-2244 10106,0 18301,1004 18301,2244z" data-name="Path 568"/>
    <path id="Path_569" class="fil1" d="M62034 19484c0,0 -8451,1377 -10606,2436 0,0 430,994 1197,1668 767,673 9437,-494 9437,-494l-28 -3610z" data-name="Path 569"/>
    <path id="Path_570" class="fil2" d="M69090 46429l329 4286c0,0 2020,1045 5265,219 0,0 385,-1411 -916,-1796 -409,-113 -810,-262 -1194,-441l159 -2263 -3643 -5z" data-name="Path 570"/>
    <path id="Path_571" class="fil3" d="M69388 50413l16 563c0,0 2019,1044 5259,218 35,-149 53,-301 53,-454 0,-53 -3,-107 -7,-160 -1870,559 -3422,366 -5321,-167z" data-name="Path 571"/>
    <path id="Path_572" class="fil3" d="M74501 50669c0,0 0,0 -1,0 -14,0 -26,-10 -28,-24 -250,-1361 -1462,-1475 -2265,-1551 -310,-28 -534,-50 -618,-141 -282,-305 -74,-1754 -65,-1817 1,-14 14,-25 28,-25 2,0 3,0 5,0 15,3 26,16 26,31 0,1 0,2 0,3 0,15 -213,1484 50,1768 68,74 294,95 581,122 769,73 2052,195 2316,1600 1,2 1,3 1,5 0,14 -10,27 -24,29l-6 0z" data-name="Path 572"/>
    <path id="Path_573" class="fil3" d="M71287 48671c-1,0 -1,0 -2,0 -16,0 -29,-13 -29,-30 0,-14 10,-26 24,-29l1462 -300c3,-1 5,-1 7,-1 17,0 30,14 30,30 0,15 -11,28 -25,30l-1462 300 -5 0z" data-name="Path 573"/>
    <path id="Path_574" class="fil3" d="M71311 48281c-1,0 -2,0 -3,0 -17,0 -30,-13 -30,-29 0,-16 11,-28 27,-30l1462 -300c2,0 3,-1 5,-1 14,0 27,10 29,24 1,2 1,5 1,7 0,14 -10,26 -24,28l-1462 301 -5 0z" data-name="Path 574"/>
    <path id="Path_575" class="fil3" d="M71342 47778c0,0 -1,0 -1,0 -14,0 -26,-9 -29,-23 0,-1 0,-3 0,-5 0,-14 9,-27 23,-31l1463 -300c2,0 4,0 6,0 14,0 26,9 29,23 1,2 1,4 1,6 0,14 -10,26 -24,29l-1462 301 -6 0z" data-name="Path 575"/>
    <path id="Path_576" class="fil2" d="M65922 46429l-330 4286c0,0 -2020,1045 -5259,219 0,0 -385,-1411 916,-1796 409,-113 811,-262 1195,-441l-168 -2268 3646 0z" data-name="Path 576"/>
    <path id="Path_577" class="fil3" d="M65623 50413l-16 563c0,0 -2018,1044 -5259,218 -34,-149 -52,-301 -52,-454 0,-53 2,-107 6,-161 1871,560 3423,367 5321,-166z" data-name="Path 577"/>
    <path id="Path_578" class="fil3" d="M60510 50669l0 0c-14,-3 -24,-15 -24,-30 0,-1 0,-3 0,-4 257,-1405 1547,-1527 2317,-1600 287,-27 513,-48 582,-121 256,-285 51,-1754 49,-1769 -1,-1 -1,-2 -1,-3 0,-15 11,-28 26,-30 2,-1 4,-1 6,-1 14,0 26,11 28,25 9,63 216,1512 -66,1817 -83,91 -308,113 -618,141 -803,76 -2015,190 -2265,1551 -2,14 -14,25 -28,25 -2,0 -4,0 -5,-1l-1 0z" data-name="Path 578"/>
    <path id="Path_579" class="fil3" d="M63725 48671l0 0 -1463 -300c-13,-3 -23,-15 -23,-29 0,-17 14,-30 30,-30 2,0 3,0 5,0l1462 300c14,3 23,15 23,29 0,17 -13,30 -30,30 -1,0 -3,0 -4,0l0 0z" data-name="Path 579"/>
    <path id="Path_580" class="fil3" d="M63701 48281l-6 0 -1462 -305c-14,-2 -24,-14 -24,-28 0,-2 0,-4 0,-7 3,-14 15,-23 29,-23 2,0 4,0 6,0l1462 300c14,3 24,15 24,29 0,2 0,4 -1,6 0,0 0,0 0,0 0,15 -12,28 -28,28l0 0z" data-name="Path 580"/>
    <path id="Path_581" class="fil3" d="M63669 47778l-6 0 -1462 -301c-14,-3 -24,-15 -24,-29 0,-2 0,-4 1,-6 3,-14 15,-23 30,-23 2,0 4,0 6,0l1462 300c14,4 23,17 23,31 0,2 0,3 0,5 -3,14 -15,23 -29,23 0,0 0,0 -1,0l0 0z" data-name="Path 581"/>
    <path id="Path_582" class="fil1" d="M62773 32227c0,0 -504,11672 -504,13774 600,165 1219,249 1842,249 622,0 1242,-84 1841,-249l1087 -10089c108,4 221,6 331,6 384,0 769,-25 1150,-73l680 10038c0,0 1707,1009 3591,256l-320 -13784 -9698 -128z" data-name="Path 582"/>
    <path id="Path_583" class="fil4" d="M61933 45902c0,0 -120,519 0,713 0,0 1440,847 4202,104 0,0 208,-623 0,-817 -210,-193 -1782,178 -2694,119 -912,-59 -1138,-401 -1508,-119z" data-name="Path 583"/>
    <path id="Path_584" class="fil4" d="M73065 45902c0,0 118,519 0,713 0,0 -1440,847 -4202,104 0,0 -208,-623 0,-817 207,-193 1781,178 2693,119 912,-59 1138,-401 1509,-119z" data-name="Path 584"/>
    <path id="Path_585" class="fil5" d="M65965 35886c-70,4 -143,6 -214,6 -185,0 -371,-13 -555,-37l-9 -9 0 -12 30 0 13 -26c87,29 1737,29 3295,-39 445,-20 840,-43 1175,-70l0 60c-334,26 -731,49 -1176,68 -812,36 -1857,59 -2559,59z" data-name="Path 585"/>
    <rect id="Rectangle_40" class="fil5" transform="matrix(0.153922 -0.217794 0.217794 0.153922 68506.5 35819.8)" width="221" height="5054" data-name="Rectangle 40"/>
    <path id="Path_586" class="fil6" d="M62087 19336c0,0 -525,1616 -227,3278 0,0 -673,1899 -100,3675 0,0 -277,1711 202,3163 0,0 -59,1822 811,2775 0,0 2713,1621 9696,128 114,-301 193,-616 233,-935 29,-206 45,-415 45,-623 0,-393 -53,-784 -156,-1162 -103,-378 641,-1646 9,-2964 0,0 -2005,-2382 -571,-6881 0,0 1457,240 1638,1411 -74,-1162 -921,-2129 -2064,-2354 -2016,-459 -8649,-242 -9516,489z" data-name="Path 586"/>
    <path id="Path_587" class="fil7 str0" d="M65759 20938c0,0 -1411,7999 206,12012" data-name="Path 587"/>
    <path id="Path_588" class="fil7 str0" d="M72703 31420c0,0 -6232,1513 -10389,-92" data-name="Path 588"/>
    <path id="Path_589" class="fil7 str1" d="M72591 29635c0,0 -6778,1204 -10629,-183" data-name="Path 589"/>
    <path id="Path_590" class="fil7 str1" d="M72600 26671c0,0 -7975,1000 -10840,-385" data-name="Path 590"/>
    <path id="Path_591" class="fil7 str1" d="M71511 22895c0,0 -7005,682 -9654,-281" data-name="Path 591"/>
    <path id="Path_592" class="fil7 str1" d="M72482 26508c-683,-566 -1057,-1340 -1345,-2565 -289,-1225 -69,-4209 826,-4456 1072,-295 1645,1317 1645,1317" data-name="Path 592"/>
    <path id="Path_593" class="fil8" d="M69715 15601l-4232 1682c329,562 -1130,1512 -1130,1512 155,49 90,2407 2200,2265 1889,142 3030,-2523 3030,-2523 -58,-168 -94,-343 -107,-521 -91,-999 239,-2415 239,-2415z" data-name="Path 593"/>
    <path id="Path_594" class="fil3" d="M69769 7001c0,0 1713,0 2117,1434 404,1434 177,3494 -770,4328 -947,833 -9353,-1010 -9353,-1010 0,0 -904,770 -1622,-11 -486,-706 -222,-1185 256,-1343 -470,-107 -834,-483 -926,-957 -150,-808 731,-1066 1164,-1154 184,-40 1194,-1070 1924,-1667 1026,-861 4950,-2599 7210,380z" data-name="Path 594"/>
    <path id="Path_595" class="fil8" d="M69863 11611c0,0 1062,-442 1495,289 434,731 475,2198 -1244,2292 0,0 -495,3293 -3823,3463 -3328,169 -4049,-2340 -4199,-3539 -150,-1199 -328,-2363 -328,-2363 0,0 828,-128 2430,-1187 1602,-1060 3463,-1942 4104,-1902 -9,0 382,2396 1565,2947z" data-name="Path 595"/>
    <path id="Path_596" class="fil3" d="M70114 14192c0,0 -402,148 -350,-1056 53,-1204 98,-1635 -291,-1727 -389,-93 -735,452 -769,1410 -35,958 -324,2292 -1346,2362 -1022,69 -1076,-973 -2384,-844 -1308,128 -1283,1265 -1731,1052 -448,-212 -631,-1072 -1133,-1111 52,897 194,4264 3669,4090 3476,-175 4338,-2187 4335,-4176z" data-name="Path 596"/>
    <path id="Path_597" class="fil8" d="M65323 15270c67,-15 129,-49 179,-97 79,-87 122,-200 122,-316 0,-5 0,-9 0,-14 -1,-22 -20,-40 -42,-40 -1,0 -1,0 -2,0 -21,2 -38,20 -38,41 0,1 0,2 0,3 0,2 0,5 0,7 0,96 -35,189 -99,261 -68,59 -155,91 -245,91 -18,0 -36,-1 -54,-4 -1,0 -2,0 -4,0 -21,0 -38,16 -39,37 0,1 0,2 0,3 0,22 16,40 38,42 15,1 31,2 46,2 46,0 93,-5 138,-16l0 0z" data-name="Path 597"/>
    <path id="Path_598" class="fil9" d="M63056 13545c44,74 123,120 209,120 134,0 243,-109 243,-243 0,-134 -109,-242 -243,-242 -27,0 -55,5 -80,14 -93,45 -151,139 -151,243 0,37 7,74 22,108l0 0z" data-name="Path 598"/>
    <path id="Path_599" class="fil9" d="M66285 13090c43,75 123,121 210,121 133,0 242,-108 242,-242 0,-134 -109,-243 -242,-243 -26,0 -51,4 -76,12 -95,45 -156,141 -156,246 0,36 7,72 22,106l0 0z" data-name="Path 599"/>
    <path id="Path_600" class="fil9" d="M64872 14085c14,-4 25,-14 30,-28 1,-4 2,-8 2,-12 0,-18 -12,-34 -29,-39 -8,0 -740,-236 -721,-572 0,-5 0,-10 0,-15 0,-46 16,-92 45,-128 36,-29 112,-18 208,0 76,13 154,20 231,20 78,0 156,-7 232,-20 59,-11 110,-49 137,-104 217,-385 -356,-1840 -385,-1902 -6,-15 -21,-25 -38,-25 -22,0 -40,18 -40,41 0,5 1,10 3,15 163,409 549,1539 384,1831 -15,33 -45,57 -80,63 -72,12 -145,19 -218,19 -73,0 -147,-7 -218,-19 -117,-16 -208,-29 -272,22 -48,50 -75,117 -75,187 0,5 0,10 0,15 -23,398 745,641 779,655 2,0 4,1 7,1 6,0 13,-2 18,-5l0 0z" data-name="Path 600"/>
    <path id="Path_601" class="fil9" d="M70212 13773c6,-1 11,-4 15,-9 8,-7 12,-18 12,-28 0,-11 -4,-22 -12,-29 -256,-315 -313,-898 -118,-1323 128,-278 336,-434 586,-439 492,-10 558,564 562,588 0,0 0,1 0,1 0,23 18,41 41,41 23,0 41,-18 41,-41 0,-3 0,-7 -1,-10 -1,-3 -78,-672 -641,-662 -283,0 -514,180 -658,488 -208,454 -152,1072 128,1411 8,9 20,14 33,14 4,0 8,0 12,-2z" data-name="Path 601"/>
    <path id="Path_602" class="fil9" d="M70915 13006l16 -9c8,-7 12,-18 12,-29 0,-11 -4,-22 -12,-29 -130,-148 -316,-232 -513,-234 -184,15 -348,141 -490,372 -4,7 -7,15 -7,23 0,23 19,41 41,41 16,0 30,-8 37,-22 128,-206 269,-319 426,-332 171,3 334,78 448,207 9,9 20,14 32,14 3,0 7,-1 10,-1l0 -1z" data-name="Path 602"/>
    <path id="Path_603" class="fil3" d="M67949 11235c0,0 -691,-602 -1207,-732 -515,-130 -1227,-344 -1336,58 -109,401 83,596 372,685 289,88 2450,392 2171,-11z" data-name="Path 603"/>
    <g>
     <path id="Path_604" class="fil3" d="M61921 12667c-65,-138 -177,-792 249,-1056 426,-264 998,-660 1202,-299 204,362 85,602 -147,770 -415,235 -853,434 -1304,590l0 -5zm0 0l0 0 0 0z" data-name="Path 604"/>
    </g>
    <path id="Path_605" class="fil10" d="M65066 18356c-62,-11 -125,-17 -188,-17 -262,0 -515,98 -710,274 -428,370 596,2204 1592,2330 -1,-5 -1144,-1569 -694,-2587z" data-name="Path 605"/>
    <path id="Path_606" class="fil10" d="M65759 20938c0,0 2861,-756 3754,-2735l-35 -187c0,0 835,-41 1016,591 181,633 -2061,2639 -4735,2331z" data-name="Path 606"/>
    <path id="Path_607" class="fil11" d="M62034 38632c0,0 -247,-1832 1118,-2113 1366,-281 1888,1357 1888,1357l-328 88c0,0 -563,-1316 -1494,-1125 -931,191 -785,1693 -785,1693l-399 100z" data-name="Path 607"/>
    <polygon id="Path_608" class="fil1" points="60803,38944 66483,37511 68150,44006 61543,45515 " data-name="Path 608"/>
    <polygon id="Path_609" class="fil4" points="66483,37511 68714,43510 68150,44006 " data-name="Path 609"/>
    <g>
    </g>
    <g style="clip-path:url(#id0)">
     <g id="_2038149287424" data-name="Path 611">
      <rect id="Rectangle_41" class="fil12" transform="matrix(0.144282 -0.224291 0.224291 0.144282 37045.2 6391.52)" width="490" height="21736" data-name="Rectangle 41"/>
      <rect id="Rectangle_42" class="fil12" transform="matrix(0.142949 -0.225091 0.225091 0.142949 37800.3 5137.45)" width="491" height="21766" data-name="Rectangle 42"/>
      <rect id="Rectangle_43" class="fil12" transform="matrix(0.143491 -0.224803 0.224803 0.143491 37562.8 3588.62)" width="491" height="29918" data-name="Rectangle 43"/>
      <rect id="Rectangle_44" class="fil12" transform="matrix(0.146682 -0.22269 0.22269 0.146682 37069.4 1600.58)" width="491" height="40195" data-name="Rectangle 44"/>
      <polygon id="Path_610" class="fil12" points="46343,6229 38547,1369 38616,1259 46412,6118 " data-name="Path 610"/>
      <rect id="Rectangle_45" class="fil12" transform="matrix(0.144282 -0.224291 0.224291 0.144282 40465.4 1356.97)" width="490" height="21736" data-name="Rectangle 45"/>
      <rect id="Rectangle_46" class="fil12" transform="matrix(0.142949 -0.225091 0.225091 0.142949 41187.2 111.491)" width="491" height="21766" data-name="Rectangle 46"/>
     </g>
    </g>
    <polygon class="fil7" points="38168,1953 43849,521 45515,7016 38909,8524 "/>
    <path id="Path_612" class="fil8" d="M48458 12819c0,0 -1347,385 -1145,2468 201,2083 2154,1631 2280,3508 126,1876 -1040,2367 -1134,3306 -93,939 370,1359 513,2597 144,1239 -513,3055 -513,3055 0,0 7149,1064 9817,-437 0,0 672,-5745 1732,-6378 1059,-634 1752,-2143 1425,-3858 -223,-1176 -2269,-2990 -2338,-4413 -70,-1424 -438,-4157 -3702,-4361 -3264,-204 -5887,1533 -6935,4513z" data-name="Path 612"/>
    <polygon id="Path_613" class="fil4" points="63474,35498 63894,36560 62106,37161 61953,35855 " data-name="Path 613"/>
    <path id="Path_614" class="fil1" d="M60008 21279c0,0 2038,1107 2528,3475 490,2367 937,10744 937,10744l-1078 231 -1003 -4976 -1384 -9474z" data-name="Path 614"/>
    <path id="Path_615" class="fil13" d="M60417 38908c0,0 214,-1834 1603,-1771 1389,63 1493,1783 1493,1783l-340 0c0,0 -219,-1411 -1168,-1461 -950,-50 -1180,1446 -1180,1446l-408 3z" data-name="Path 615"/>
    <polygon id="Path_616" class="fil14" points="59146,38904 65005,38925 65009,45630 58234,45453 " data-name="Path 616"/>
    <polygon id="Path_617" class="fil15" points="65005,38925 65678,45288 65008,45630 " data-name="Path 617"/>
    <g>
    </g>
    <g style="clip-path:url(#id1)">
     <g data-name="Path 619">
      <polygon id="Path_618" class="fil12" points="41003,8555 37028,4323 37124,4235 41098,8465 " data-name="Path 618"/>
      <rect id="Rectangle_47" class="fil12" transform="matrix(0.194421 -0.182686 0.182686 0.194421 37933.8 3517.36)" width="491" height="21766" data-name="Rectangle 47"/>
      <rect id="Rectangle_48" class="fil12" transform="matrix(0.194731 -0.182226 0.182226 0.194731 38089.4 1952.19)" width="491" height="29918" data-name="Rectangle 48"/>
      <rect id="Rectangle_49" class="fil12" transform="matrix(0.197256 -0.179489 0.179489 0.197256 38103 -89.5185)" width="491" height="40195" data-name="Rectangle 49"/>
      <rect id="Rectangle_50" class="fil12" transform="matrix(0.192821 -0.184286 0.184286 0.192821 39592.5 52.258)" width="491" height="34443" data-name="Rectangle 50"/>
      <rect id="Rectangle_51" class="fil12" transform="matrix(0.194421 -0.182686 0.182686 0.194421 41557.5 289.178)" width="491" height="21766" data-name="Rectangle 51"/>
      <rect id="Rectangle_52" class="fil12" transform="matrix(0.194421 -0.182686 0.182686 0.194421 42464.2 -517.327)" width="491" height="21766" data-name="Rectangle 52"/>
     </g>
    </g>
    <polygon class="fil7" points="39080,521 44939,541 44943,7246 38169,7069 "/>
    <path id="Path_620" class="fil4" d="M61967 36589c0,0 898,-1070 1650,-408 752,662 -183,1551 -1000,1511 -817,-40 -650,-1103 -650,-1103z" data-name="Path 620"/>
    <path id="Path_621" class="fil16" d="M60590 47709c0,0 -20,-351 -1649,-281 -1540,67 -1606,272 -1606,272 0,0 898,1122 1795,979 898,-144 1460,-970 1460,-970z" data-name="Path 621"/>
    <path id="Path_622" class="fil16" d="M56036 48075c0,0 -21,-352 -1650,-280 -1539,67 -1606,271 -1606,271 0,0 898,1122 1796,978 898,-144 1460,-969 1460,-969z" data-name="Path 622"/>
    <path id="Path_623" class="fil2" d="M60526 41621c-243,3032 -680,8104 -680,8104 0,0 -722,479 -1842,13 0,0 -523,-6108 -827,-8062 -304,-1955 -581,-4052 -581,-4052l-168 0c0,0 -71,4775 -421,7695 -350,2921 -628,4506 -628,4506 -271,122 -566,186 -864,186 -390,0 -773,-109 -1105,-314 -332,-205 -884,-7319 -1054,-9060 -129,-1293 -82,-4696 -52,-6364 323,-9 661,-16 989,-16 2379,0 4758,286 7067,842 152,1881 316,4668 166,6522z" data-name="Path 623"/>
    <path id="Path_624" class="fil3" d="M60318 32939l-140 141c0,0 90,829 183,2020 -2310,-554 -4689,-841 -7069,-841 -327,0 -665,7 -989,15 12,-579 19,-948 19,-948 0,0 2900,-546 7996,-387z" data-name="Path 624"/>
    <path id="Path_625" class="fil16" d="M57369 51735c0,0 63,662 -779,630 -843,-32 -2229,-402 -2784,-912 -554,-511 -397,-877 -397,-877l3960 1159z" data-name="Path 625"/>
    <path id="Path_626" class="fil1" d="M56034 48018c0,0 55,1403 -18,2263 0,0 1987,1259 1144,1754 -842,495 -3455,-615 -3829,-1382 -306,-831 -491,-1704 -546,-2587 -55,-883 1971,679 3249,-48z" data-name="Path 626"/>
    <path id="Path_627" class="fil16" d="M54308 50755c528,-35 1048,-152 1539,-347l-24 -54c-617,240 -1274,364 -1936,364 -105,0 -212,-3 -317,-9l0 59c86,3 176,5 263,5 158,0 317,-6 475,-18l0 0z" data-name="Path 627"/>
    <path id="Path_628" class="fil16" d="M61864 51422c0,0 62,662 -780,631 -843,-31 -2170,-455 -2723,-966 -553,-510 -398,-878 -398,-878l3901 1213z" data-name="Path 628"/>
    <path id="Path_629" class="fil1" d="M60589 47651c0,0 55,1405 -18,2263 0,0 1924,1313 1083,1808 -840,496 -3396,-668 -3771,-1437 -306,-831 -491,-1704 -549,-2588 -57,-883 1976,683 3255,-46z" data-name="Path 629"/>
    <path id="Path_630" class="fil16" d="M58862 50388c528,-32 1049,-151 1540,-347l-25 -53c-617,241 -1278,365 -1941,365 -104,0 -208,-4 -311,-10l0 58c89,5 180,7 270,7 155,0 312,-7 467,-20l0 0z" data-name="Path 630"/>
    <path id="Path_631" class="fil3" d="M57711 37655c15,-1 26,-14 26,-29 0,-16 -12,-29 -28,-30l-2346 -64c0,0 -1,0 -2,0 -15,0 -27,12 -27,27 0,0 0,1 0,1 0,0 0,1 0,1 0,16 13,29 28,29 0,0 0,0 0,0l2345 65 4 0z" data-name="Path 631"/>
    <path id="Path_632" class="fil3" d="M58194 47936l0 0c15,0 26,-12 26,-27 0,-1 0,-3 0,-5l-1061 -10296c-1,-15 -13,-26 -28,-26 -1,0 -2,0 -3,0l0 0c-15,2 -26,14 -26,29 0,1 1,3 1,4l1060 10297c3,14 15,24 29,24 1,0 2,0 2,0l0 0z" data-name="Path 632"/>
    <path id="Path_633" class="fil3" d="M53364 48249l0 0c15,-2 26,-14 26,-29 0,-1 0,-2 0,-3l-521 -6450c-1,-15 -12,-26 -27,-26 -2,0 -4,0 -5,0l0 0c-15,1 -26,13 -26,27 0,2 0,4 0,5l521 6450c1,15 13,26 28,26 1,0 3,0 4,0l0 0z" data-name="Path 633"/>
    <path id="Path_634" class="fil3" d="M58834 33550c15,-2 27,-14 27,-29 0,-16 -12,-29 -28,-29 -24,0 -2391,-121 -4026,205 -14,2 -25,14 -25,28 0,16 13,29 29,29 3,0 5,0 7,-1 1628,-323 3988,-204 4012,-204l4 1z" data-name="Path 634"/>
    <path id="Path_635" class="fil3" d="M57031 36755c15,-2 27,-15 27,-31 0,0 0,0 0,0l-168 -3664c0,0 0,0 0,0 0,-16 -13,-29 -29,-29 0,0 0,0 -1,0 -16,1 -28,14 -28,30 0,0 0,1 0,1l161 3664c2,16 15,29 31,29 0,0 0,0 0,0l7 0z" data-name="Path 635"/>
    <path id="Path_636" class="fil3" d="M56908 36457c37,-3 75,-7 111,-14 15,-2 25,-15 25,-29 0,-2 0,-3 0,-4 -3,-15 -16,-25 -31,-25 -1,0 -2,0 -4,0 -113,21 -423,46 -513,-79 -90,-126 -218,-1956 -289,-3163 0,-16 -13,-28 -29,-28 -1,0 -1,0 -1,0 -16,1 -29,14 -29,30 0,0 0,0 0,0 18,310 180,3025 300,3195 90,125 320,127 460,117z" data-name="Path 636"/>
    <path id="Path_637" class="fil9" d="M56346 33421c9,107 99,188 206,188 114,0 206,-92 206,-206 0,-114 -92,-207 -206,-207 -61,0 -118,27 -158,73 -31,37 -49,85 -49,134 0,6 0,12 1,18l0 0z" data-name="Path 637"/>
    <rect id="Rectangle_53" class="fil17" x="53719" y="21918" width="5150" height="11671" data-name="Rectangle 53"/>
    <path id="Path_638" class="fil1" d="M54453 25457l-505 2848 2082 2883c12,-3652 -1210,-8792 -1210,-8792 -82,-183 -202,-347 -353,-478 -467,858 -1331,2344 -1331,2344l1317 1195z" data-name="Path 638"/>
    <path id="Path_639" class="fil1" d="M53949 28305l505 -2847 -1317 -1196c0,0 864,-1486 1331,-2344 -608,-513 -1597,-256 -2769,295 -1439,674 -1470,2082 -1738,4169 -268,2086 -104,7041 -104,7041l-1399 7218c2606,2021 6822,1633 6822,1633 0,0 552,-6776 735,-10430 10,-212 15,-431 17,-656l-2083 -2883z" data-name="Path 639"/>
    <path id="Path_640" class="fil16" d="M45930 48545c0,0 -45,-256 -1225,-66 -1113,177 -1146,332 -1146,332 0,0 750,741 1393,562 642,-180 978,-828 978,-828z" data-name="Path 640"/>
    <path id="Path_641" class="fil16" d="M49789 48545c0,0 -45,-256 -1225,-66 -1113,177 -1146,332 -1146,332 0,0 750,741 1392,562 641,-180 979,-828 979,-828z" data-name="Path 641"/>
    <path id="Path_642" class="fil4" d="M49419 41868l-5569 731 0 1614c1767,-641 3672,-970 5548,-1261l21 -1084z" data-name="Path 642"/>
    <path id="Path_643" class="fil4" d="M43854 44213l11 4988 1818 0 513 -4081 769 -163 761 4244 1585 -199 91 -6045c-1875,286 -3781,609 -5548,1256z" data-name="Path 643"/>
    <path id="Path_644" class="fil16" d="M50977 50894c0,0 86,183 -489,410 -39,17 -1453,352 -2328,-106 -70,-36 -584,-238 -513,-554l3330 250z" data-name="Path 644"/>
    <path id="Path_645" class="fil14" d="M49783 48503c0,0 -227,1047 -204,1679 0,0 1874,404 1302,833 -572,430 -2895,190 -3226,-337 -34,-627 -113,-1251 -232,-1867 -120,-616 1490,329 2360,-308z" data-name="Path 645"/>
    <path id="Path_646" class="fil16" d="M48370 50669c380,-69 749,-199 1089,-384l-22 -36c-499,262 -1049,415 -1611,446l0 43c182,-11 364,-35 544,-69l0 0z" data-name="Path 646"/>
    <path id="Path_647" class="fil16" d="M47079 50894c0,0 85,183 -488,410 -40,17 -1454,352 -2328,-106 -71,-36 -585,-238 -513,-554l3329 250z" data-name="Path 647"/>
    <path id="Path_648" class="fil14" d="M45885 48503c0,0 -227,1047 -209,1679 0,0 1875,404 1303,833 -572,430 -2891,190 -3227,-337 -34,-627 -113,-1251 -233,-1867 -119,-616 1495,329 2366,-308z" data-name="Path 648"/>
    <path id="Path_649" class="fil16" d="M44472 50669c380,-69 749,-199 1089,-384l-22 -36c-499,262 -1049,415 -1611,446l0 43c182,-11 364,-35 544,-69l0 0z" data-name="Path 649"/>
    <path id="Path_650" class="fil18" d="M45339 45395c-17,0 -30,-14 -30,-30 0,-14 9,-26 22,-30l2592 -653c3,-1 6,-1 8,-1 14,0 26,10 29,23 1,2 1,5 1,7 0,15 -10,27 -24,30l-2591 653 -7 1z" data-name="Path 650"/>
    <path id="Path_651" class="fil18" d="M47444 45282c-3,1 -6,1 -8,1 -3,0 -5,0 -8,-1l-476 -298c-7,-6 -11,-15 -11,-24 0,-17 14,-31 31,-31 4,0 9,1 14,3l474 299c9,6 14,15 14,25 0,6 -2,11 -5,16 -5,7 -13,11 -22,11 -1,0 -2,0 -3,-1l0 0z" data-name="Path 651"/>
    <path id="Path_652" class="fil19" d="M49202 34765c0,0 681,336 803,1071 122,735 144,2895 144,2895l632 -1015 1223 651c0,0 -826,2329 -1633,2654 -513,206 -981,-473 -981,-473l-188 -5783z" data-name="Path 652"/>
    <path id="Path_653" class="fil4" d="M43711 33942c0,0 3669,-1476 5259,-869 986,375 -1088,2528 -2344,2436 -1255,-91 -2915,-1567 -2915,-1567z" data-name="Path 653"/>
    <path id="Path_654" class="fil14" d="M47527 27942c0,0 -581,385 -573,803 9,418 287,240 287,240 0,0 -99,718 166,803 266,84 222,-94 222,-94 0,0 187,649 453,633 265,-17 128,-343 128,-343 0,0 325,573 616,462 291,-112 240,-495 240,-495 0,0 265,222 470,93 206,-128 85,-623 85,-623 0,0 249,187 326,-95 77,-282 -189,-546 -189,-546 0,0 273,-240 94,-513 -78,-109 -203,-174 -337,-174 -16,0 -32,1 -48,3 -16,2 268,-200 -42,-385 -110,-58 -233,-89 -358,-89 -23,0 -46,1 -69,3 -23,3 34,-273 -197,-307 -231,-35 -470,172 -470,172 -86,-31 -177,-47 -269,-47 -120,0 -239,27 -347,80 -124,57 -203,182 -203,318 0,34 5,69 15,101l0 0z" data-name="Path 654"/>
    <path id="Path_655" class="fil20" d="M48239 33907c606,116 -2074,1856 -3090,1050 0,0 -12,-234 -53,-543 914,-41 1846,-393 2681,-826 115,154 277,266 462,318l0 1z" data-name="Path 655"/>
    <path id="Path_656" class="fil21" d="M47142 32431c0,0 263,721 641,1154 -834,433 -1767,784 -2680,826 -55,-422 -166,-986 -385,-1291l2424 -689z" data-name="Path 656"/>
    <path id="Path_657" class="fil3" d="M47496 32055c0,0 594,1754 1376,1668 497,-75 108,-800 108,-800 0,0 738,545 1225,256 488,-288 -497,-1107 -497,-1107 0,0 897,302 1216,-179 690,-1026 -2181,-1228 -2181,-1228l-1247 1390z" data-name="Path 657"/>
    <path id="Path_658" class="fil3" d="M42435 31915c0,0 -1760,574 -1685,1356 69,499 799,118 799,118 0,0 -554,732 -267,1222 287,490 1115,-487 1115,-487 0,0 -312,889 165,1219 1026,701 1446,-2554 1446,-2554l-1573 -874z" data-name="Path 658"/>
    <path id="Path_659" class="fil3" d="M43237 25173c642,-581 1478,-906 2344,-911 1991,8 3935,1777 3244,3556 -1094,2821 -4453,5130 -5012,5209 -560,78 -2364,200 -3494,-1529 -1130,-1729 -672,-3307 -176,-4278 699,-1365 2156,-2032 3094,-2047z" data-name="Path 659"/>
    <path id="Path_660" class="fil22" d="M48781 27746c0,0 257,1136 702,1893 445,756 104,2647 -2033,3529 -2137,883 -3983,-128 -4731,-1135 0,0 -980,497 -1649,-557 -668,-1055 461,-1637 977,-1359 0,0 864,112 875,-1175 0,0 295,363 624,104 983,-770 787,-2278 787,-2278 0,0 1714,1026 2356,713 453,-218 56,-1100 56,-1100 0,0 1217,1314 2036,1365z" data-name="Path 660"/>
    <path id="Path_661" class="fil9" d="M42534 31842l-17 0c-17,-6 -28,-22 -28,-40 0,-3 1,-6 1,-10 6,-47 9,-96 9,-144 0,-347 -143,-679 -393,-918 -184,-169 -379,-216 -549,-128 -335,164 -181,629 -175,648 2,5 4,10 4,16 0,15 -10,29 -24,35 -4,1 -8,2 -12,2 -16,0 -31,-11 -34,-27 -4,-17 -185,-555 209,-748 197,-96 419,-45 625,145 302,279 481,782 410,1145 -4,12 -14,21 -26,24l0 0z" data-name="Path 661"/>
    <path id="Path_662" class="fil9" d="M41785 31496c-3,1 -6,1 -9,1 -3,0 -6,0 -9,-1 -16,-7 -27,-23 -27,-40 0,-4 0,-8 1,-11 34,-156 132,-290 271,-368 128,-53 290,-15 468,116 11,8 18,21 18,35 0,7 -2,14 -5,20 -6,11 -17,18 -29,18 -8,0 -15,-3 -21,-7 -158,-114 -293,-152 -404,-107 -117,69 -201,184 -230,317 -2,13 -12,23 -24,27l0 0z" data-name="Path 662"/>
    <path id="Path_663" class="fil9" d="M47281 30405c-5,2 -10,3 -16,3 -5,0 -10,-1 -15,-3 -13,-8 -21,-22 -21,-37 0,-7 2,-14 6,-20 3,-6 166,-290 116,-469 -8,-49 -38,-91 -81,-116 -102,-56 -185,36 -300,184 -88,114 -188,242 -305,165 -190,-128 -280,-1067 -296,-1255 3,-21 21,-35 41,-35 21,0 38,14 42,35 36,418 137,1113 257,1194 48,32 105,-35 193,-149 104,-128 234,-300 406,-204 60,33 103,90 120,156 59,213 -116,513 -128,533 -4,8 -11,14 -19,17l0 1z" data-name="Path 663"/>
    <path id="Path_664" class="fil9" d="M44903 30276c46,61 118,97 194,97 135,0 244,-109 244,-244 0,-134 -109,-243 -244,-243 -86,0 -166,45 -210,119 -22,38 -34,81 -34,124 0,53 18,105 50,147l0 0z" data-name="Path 664"/>
    <path id="Path_665" class="fil9" d="M47863 29327c46,60 117,94 192,94 135,0 244,-109 244,-243 0,-135 -109,-244 -244,-244 -36,0 -72,8 -105,24 -79,49 -126,136 -126,229 0,49 13,98 39,140l0 0z" data-name="Path 665"/>
    <path id="Path_666" class="fil21" d="M44383 31476c36,292 445,482 916,425 471,-56 823,-340 787,-631 -35,-291 -445,-482 -915,-425 -471,56 -822,339 -788,631z" data-name="Path 666"/>
    <path id="Path_667" class="fil21" d="M47694 30771c128,257 582,303 1005,90 423,-213 659,-599 527,-862 -132,-263 -583,-301 -1005,-90 -422,212 -659,600 -527,862z" data-name="Path 667"/>
    <path id="Path_668" class="fil7 str2" d="M44771 28596c0,0 -652,76 -833,969" data-name="Path 668"/>
    <path id="Path_669" class="fil7 str2" d="M47555 27893c0,0 642,-161 1122,610" data-name="Path 669"/>
    <path id="Path_670" class="fil17" d="M47313 31323c-92,69 -201,113 -314,128 -35,7 -71,11 -107,11 -256,0 -475,-183 -522,-434 20,-1 40,-2 59,-2 319,0 629,105 884,297l0 0z" data-name="Path 670"/>
    <path id="Path_671" class="fil23" d="M46715 30736c0,0 285,287 576,162 150,-64 256,238 22,425 -255,-193 -566,-297 -885,-297 -18,0 -37,0 -55,1 -5,-26 -8,-52 -8,-78 0,-26 3,-52 8,-78 57,-285 211,-225 342,-135z" data-name="Path 671"/>
    <path id="Path_672" class="fil4" d="M41551 29934c0,0 -950,-3163 3059,-4735 3794,-872 4215,2619 4215,2619l309 0c0,0 -353,-2273 -1902,-2855 -1550,-583 -3001,-68 -3695,342 -695,411 -2800,1278 -2423,4629l437 0z" data-name="Path 672"/>
    <path id="Path_673" class="fil14" d="M40902 30108c0,0 -581,385 -572,805 9,419 286,238 286,238 0,0 -98,718 167,804 266,86 222,-95 222,-95 0,0 189,650 453,633 264,-18 128,-342 128,-342 0,0 324,572 616,462 291,-110 239,-496 239,-496 0,0 265,223 470,95 205,-129 86,-625 86,-625 0,0 247,188 324,-94 77,-282 -188,-547 -188,-547 0,0 273,-239 95,-513 -78,-110 -204,-175 -339,-175 -15,0 -31,1 -46,3 -16,2 267,-199 -44,-385 -109,-58 -230,-88 -354,-88 -24,0 -49,1 -73,3 -24,3 35,-273 -196,-307 -231,-35 -471,170 -471,170 -85,-30 -175,-46 -266,-46 -121,0 -240,28 -348,81 -124,57 -204,181 -204,317 0,35 5,69 15,102l0 0z" data-name="Path 673"/>
    <path id="Path_674" class="fil5" d="M49385 34835c161,434 244,896 244,1360 0,145 -9,291 -24,435 -16,144 441,1002 156,2020 0,0 206,926 -33,1757 0,0 83,1002 -398,1586 0,0 -1539,1072 -5643,708 -75,-159 -129,-328 -161,-500 -30,-151 -45,-305 -45,-458 0,-180 21,-360 62,-534 41,-175 -418,-866 -85,-1635 0,0 1103,-1445 149,-3833 0,0 -842,227 -916,889 0,0 -24,-1042 1138,-1432 1162,-390 5032,-714 5556,-363z" data-name="Path 674"/>
    <path id="Path_675" class="fil10" d="M47550 42620l-115 -41c814,-2277 -129,-6240 -140,-6285l118 -29c10,39 964,4044 137,6355z" data-name="Path 675"/>
    <path id="Path_676" class="fil10" d="M45107 42333c-921,0 -1568,-72 -1583,-74l14 -121c37,0 3677,409 6011,-729l54 110c-1381,672 -3207,814 -4496,814z" data-name="Path 676"/>
    <path id="Path_677" class="fil10" d="M44449 41255c-539,0 -883,-18 -898,-19 -16,-1 -29,-14 -29,-31 0,0 0,-1 0,-1 3,-14 15,-24 29,-26 40,0 3993,207 6164,-798 5,-2 9,-3 14,-3 12,0 22,7 27,17 2,4 3,9 3,13 0,12 -7,23 -18,28 -1548,714 -3992,820 -5292,820z" data-name="Path 677"/>
    <path id="Path_678" class="fil10" d="M43491 39602l-27 0c-2,0 -4,1 -6,1 -17,0 -31,-14 -31,-31 0,-17 14,-31 31,-31 2,0 4,0 6,1l28 0c385,0 4714,-22 6254,-920 5,-3 11,-5 17,-5 17,0 30,14 30,31 0,11 -6,21 -16,27 -1554,907 -5898,927 -6286,927z" data-name="Path 678"/>
    <path id="Path_679" class="fil10" d="M43995 37449c-17,0 -31,-14 -31,-31 0,-17 14,-31 31,-31 41,0 4104,-92 5597,-788 5,-3 11,-5 17,-5 17,0 31,14 31,31 0,14 -9,26 -22,30 -1504,700 -5581,792 -5622,794l-1 0z" data-name="Path 679"/>
    <path id="Path_680" class="fil10" d="M43529 39511c0,0 -1,0 -1,0 -8,0 -16,-3 -22,-9 -5,-6 -9,-14 -9,-22 0,-8 4,-16 9,-22 360,-336 564,-769 705,-1484 129,-627 -151,-2081 -397,-2386 -28,-35 -54,-54 -77,-54l-9 0c-446,0 -827,602 -831,608 -5,9 -15,15 -26,15 -6,0 -12,-2 -17,-5 -8,-6 -13,-16 -13,-26 0,-6 1,-12 5,-17 15,-25 409,-647 897,-641 53,4 100,32 129,76 280,348 529,1828 410,2437 -144,732 -353,1172 -723,1517 -6,8 -16,13 -26,13 -1,0 -3,0 -4,0l0 0z" data-name="Path 680"/>
    <path id="Path_681" class="fil4" d="M43900 34953c0,0 1611,93 2693,-475 582,-290 1148,-624 1681,-995 257,-180 813,-770 1026,-128 198,419 96,641 96,641 126,130 196,305 196,487 0,138 -41,273 -117,388 -323,547 -2074,2052 -4379,1089 -1545,-653 -1196,-1007 -1196,-1007z" data-name="Path 681"/>
    <path id="Path_682" class="fil4" d="M49436 34978c0,0 205,1813 257,2734 51,921 -861,1945 -652,3001 0,0 -1190,355 -1975,-129 0,0 -274,-551 51,-1437 326,-887 581,-1999 525,-2785 -56,-786 -210,-1680 -210,-1680l2004 296z" data-name="Path 682"/>
    <path id="Path_683" class="fil4" d="M49561 34381c0,0 -1615,486 -2893,204 -679,-133 -1353,-317 -2008,-543 -319,-108 -1062,-543 -1086,128 -76,451 96,641 96,641 0,0 -281,444 182,863 495,448 2733,1469 4793,-25 1382,-1012 916,-1268 916,-1268z" data-name="Path 683"/>
    <path id="Path_684" class="fil24" d="M45842 37396c0,0 -912,-828 -539,-1249 373,-422 975,926 975,926 0,0 -172,-1570 680,-1586 853,-15 57,1723 57,1723l-215 8c0,0 445,-1427 159,-1516 -385,-121 -464,1467 -464,1467l-367 112c0,0 -490,-1083 -666,-898 -175,184 506,933 506,933l-126 80z" data-name="Path 684"/>
    <polygon id="Path_685" class="fil12" points="46260,37036 46561,40024 44681,40942 44142,38369 " data-name="Path 685"/>
    <polygon id="Path_686" class="fil12" points="46260,37036 46561,40024 48685,40212 48685,37418 " data-name="Path 686"/>
    <polygon id="Path_687" class="fil12" points="48685,40212 46729,41038 44681,40942 46556,39974 " data-name="Path 687"/>
    <polygon id="Path_688" class="fil24" points="47199,37183 47449,40074 47948,40130 47948,37301 " data-name="Path 688"/>
    <polygon id="Path_689" class="fil24" points="47449,40074 45562,40983 46314,41019 47947,40130 " data-name="Path 689"/>
    <polygon id="Path_690" class="fil24" points="44585,38090 45263,40641 45720,40405 45182,37714 " data-name="Path 690"/>
    <polygon id="Path_691" class="fil24" points="45263,40641 47102,40881 47473,40724 45720,40373 " data-name="Path 691"/>
    <path id="Path_692" class="fil4" d="M45642 39923c0,0 214,-721 641,-558 159,116 -89,384 -89,384 0,0 592,-979 1061,-641 470,339 103,1487 -1061,1729l-552 -914z" data-name="Path 692"/>
    <path id="Path_693" class="fil19" d="M42697 36550c0,0 -12,27 -31,78 -204,513 -1333,3446 -1130,4431 0,0 632,2197 3122,1102 1282,-662 1531,-1322 1531,-1322l-613 -1026 -2003 596 -200 -693c0,0 497,-749 561,-1345 65,-597 250,-2363 -322,-2628 -277,-132 -601,-20 -915,807z" data-name="Path 693"/>
    <path id="Path_694" class="fil1" d="M58999 24479l506 2847 -2083 2885c-13,-3652 1211,-8792 1211,-8792 81,-184 202,-347 352,-480 467,859 1330,2346 1330,2346l-1316 1194z" data-name="Path 694"/>
    <path id="Path_695" class="fil1" d="M59505 27326l-506 -2846 1316 -1195c0,0 -863,-1487 -1330,-2346 608,-513 -241,-257 932,296 1439,673 1469,2082 1737,4167 268,2086 104,7043 104,7043l1400 7218c-2607,2019 -4986,1631 -4986,1631 0,0 -551,-6775 -735,-10431 -11,-211 -16,-429 -16,-654l2084 -2883z" data-name="Path 695"/>
    <path id="Path_696" class="fil14" d="M56536 22108c0,0 -673,1400 0,3434 673,2034 733,2792 245,5108 -489,2315 609,2862 641,5038 0,0 1924,70 2851,-780l43 -41c-77,-311 -352,-837 -291,-1814 60,-977 429,-1594 128,-3351 -301,-1757 -702,-2791 -459,-3748 627,-2479 -179,-4094 -594,-4925l-2564 1079z" data-name="Path 696"/>
    <path id="Path_697" class="fil14" d="M51593 19541c0,0 -728,1819 885,2859 1612,1040 6053,271 7001,-1359 948,-1629 -55,-3251 -1703,-2978 -1648,274 -6183,1478 -6183,1478z" data-name="Path 697"/>
    <path id="Path_698" class="fil20" d="M58106 15772l206 2668c0,0 -201,740 -2879,1722 -916,336 -613,-3858 -613,-3858l3286 -532z" data-name="Path 698"/>
    <path id="Path_699" class="fil25" d="M49655 16641c0,0 1064,1338 1248,2154 183,815 2112,2285 4530,1367 2417,-919 3153,-3207 2878,-4561 0,0 1225,-735 611,-1990 -613,-1254 -1713,-495 -1682,150 0,0 -1103,982 -3001,-288 0,0 91,1376 -704,1813 -795,438 -4104,-727 -4104,-727 0,0 566,1224 224,2082z" data-name="Path 699"/>
    <path id="Path_700" class="fil9" d="M58376 15216c4,-4 7,-9 9,-14 1,-3 1,-6 1,-10 0,-17 -10,-33 -26,-38 -345,-182 -585,-514 -648,-898 -36,-241 32,-425 194,-513 318,-180 609,200 620,216 8,11 20,17 32,17 7,0 15,-3 21,-6 7,-7 11,-16 11,-26 0,-10 -4,-19 -11,-26 -7,-6 -346,-454 -720,-241 -187,105 -266,314 -227,585 61,398 369,821 701,961 5,3 11,5 17,5 10,0 19,-4 26,-12l0 0z" data-name="Path 700"/>
    <path id="Path_701" class="fil9" d="M58508 14420c5,-4 8,-10 9,-15 1,-4 1,-7 1,-10 0,-17 -10,-33 -26,-39 -12,0 -268,-103 -449,19 -117,78 -172,227 -164,442 1,21 17,38 38,41 2,1 3,1 4,1 18,0 32,-15 32,-32 0,-1 0,-2 0,-3 0,-191 39,-321 136,-385 64,-31 134,-47 205,-47 62,0 123,12 180,35 3,2 7,2 11,2 9,0 17,-3 23,-9l0 0z" data-name="Path 701"/>
    <path id="Path_702" class="fil9" d="M53700 18092c8,-7 14,-16 17,-27 0,-2 0,-4 0,-6 0,-20 -14,-37 -34,-40 -19,-4 -320,-59 -424,-209 -20,-29 -31,-63 -31,-98 0,-10 1,-20 2,-31 22,-112 144,-116 326,-110 141,0 302,13 317,-128 26,-221 -623,-882 -753,-1012 -7,-8 -18,-12 -29,-12 -22,0 -40,18 -40,40 0,11 4,21 11,29 292,291 747,805 732,946 -8,57 -94,58 -234,51 -167,-6 -373,-14 -409,176 -3,15 -5,31 -5,47 0,51 16,100 46,142 128,178 463,239 477,242 5,2 10,2 16,2 5,0 10,0 15,-2l0 0z" data-name="Path 702"/>
    <path id="Path_703" class="fil9" d="M54823 18361c128,-86 204,-230 204,-383 0,-35 -3,-69 -11,-103 -2,-19 -19,-34 -38,-34 -3,0 -6,0 -8,1 -20,3 -34,20 -34,40 0,2 0,4 0,6 6,27 9,55 9,83 0,183 -123,343 -300,390 -18,4 -31,21 -31,39 0,3 1,7 2,10 4,17 19,30 37,30 4,0 8,-1 11,-2 57,-16 111,-43 159,-77l0 0z" data-name="Path 703"/>
    <path id="Path_704" class="fil8" d="M50704 17345c0,0 -182,-725 197,-1114 380,-389 565,-69 521,86 -44,155 -553,605 -718,1028z" data-name="Path 704"/>
    <path id="Path_705" class="fil8" d="M55992 14885c0,0 -789,-641 -1328,-586 -538,55 -401,403 -256,465 145,61 1154,-7 1584,121z" data-name="Path 705"/>
    <path id="Path_706" class="fil20" d="M56461 16463c197,210 81,641 -256,953 -338,312 -770,403 -969,192 -198,-210 -80,-641 257,-953 337,-311 773,-402 968,-192z" data-name="Path 706"/>
    <path id="Path_707" class="fil20" d="M53474 18918c90,274 -195,612 -641,757 -446,145 -871,39 -959,-234 -89,-273 195,-612 641,-757 446,-144 869,-39 959,234z" data-name="Path 707"/>
    <path id="Path_708" class="fil9" d="M55358 16389c11,-11 17,-25 17,-40 0,-10 -3,-21 -9,-30 -15,-20 -358,-519 -698,-552 -11,-1 -22,-2 -33,-2 -94,0 -184,39 -249,107 -385,385 128,1026 156,1048 11,16 28,26 47,26 31,0 56,-25 56,-55 0,-16 -7,-30 -18,-41 -11,-10 -482,-586 -165,-897 44,-49 106,-76 171,-76 8,0 17,0 25,1 289,29 614,500 617,506 10,14 27,23 45,23 11,0 21,-3 30,-9 4,-2 7,-5 8,-9l0 0z" data-name="Path 708"/>
    <path id="Path_709" class="fil9" d="M55131 16118c6,-5 11,-12 13,-19l100 -268c3,-6 4,-13 4,-19 0,-23 -14,-44 -36,-52 -6,-2 -12,-3 -19,-3 -22,0 -42,14 -50,35l-101 268c-3,6 -4,13 -4,19 0,23 14,44 36,52 6,2 12,4 19,4 15,0 28,-6 38,-17l0 0z" data-name="Path 709"/>
    <path id="Path_710" class="fil9" d="M55280 16268c6,-5 10,-12 13,-19l100 -268c1,-4 2,-9 2,-13 0,-31 -25,-56 -56,-56 -20,0 -39,12 -49,30l-100 268c-1,6 -2,12 -2,17 0,31 24,56 55,56 14,0 27,-5 37,-15l0 0z" data-name="Path 710"/>
    <path id="Path_711" class="fil9" d="M51849 18578l9 0c17,-10 28,-29 28,-48 0,-10 -3,-19 -7,-28 -5,-8 -293,-500 -195,-769 24,-70 81,-124 151,-145 420,-154 740,524 744,532 7,24 28,40 53,40 31,0 55,-25 55,-55 0,-11 -3,-22 -9,-31 -14,-32 -367,-776 -880,-590 -101,33 -181,111 -217,212 -115,322 190,844 203,866 10,13 26,21 43,21 7,0 15,-2 22,-5l0 0z" data-name="Path 711"/>
    <path id="Path_712" class="fil9" d="M51702 18257c20,-8 33,-26 36,-47 0,-1 0,-3 0,-4 0,-29 -22,-53 -50,-55l-285 -23c-2,0 -4,0 -5,0 -29,0 -52,22 -54,50 0,1 0,3 0,4 0,28 22,52 50,55l285 23c2,0 4,0 6,0 6,0 11,-1 17,-3l0 0z" data-name="Path 712"/>
    <path id="Path_713" class="fil9" d="M51773 18455c21,-7 35,-25 37,-46 0,-2 0,-5 0,-7 0,-28 -22,-52 -51,-54l-284 -24c-2,0 -3,0 -4,0 -29,0 -53,22 -55,50 0,2 -1,4 -1,5 0,29 22,52 51,54l284 23c3,1 7,1 10,1 4,0 9,-1 14,-2l-1 0z" data-name="Path 713"/>
    <path id="Path_714" class="fil26" d="M59372 15797c35,-65 54,-139 54,-213 0,-15 0,-29 -2,-43 -14,-180 -114,-343 -268,-438 -306,-167 -745,22 -769,30 -14,7 -23,21 -23,36 0,6 1,11 3,17 7,13 20,22 36,22 5,0 11,-1 16,-3 5,-3 422,-181 694,-32 132,81 217,222 228,377 2,14 3,28 3,43 0,154 -109,287 -260,318 -269,76 -624,-44 -702,-192 -7,-13 -21,-21 -35,-21 -22,0 -39,18 -39,39 0,6 1,13 4,18 102,192 513,312 794,232 111,-24 207,-93 266,-190l0 0z" data-name="Path 714"/>
    <path id="Path_715" class="fil4" d="M50373 36628c0,0 -571,1994 617,2549 1187,556 1026,-1463 1026,-1463 0,0 327,385 572,0 245,-385 -565,-882 -565,-882l-1650 -204z" data-name="Path 715"/>
    <path id="Path_716" class="fil1" d="M50106 25210c0,0 -449,7751 267,11415 0,0 937,555 1639,204l1125 -9955 -3031 -1664z" data-name="Path 716"/>
    <path id="Path_717" class="fil7 str3" d="M50373 36628c0,0 937,555 1639,204l1125 -9956" data-name="Path 717"/>
    <path id="Path_718" class="fil27" d="M53115 20598c-26,0 -55,1 -81,1 -311,0 -623,-29 -929,-85l27 -120c27,7 2766,596 5710,-1486l71 100c-1899,1343 -3717,1590 -4798,1590z" data-name="Path 718"/>
    <path id="Path_719" class="fil1" d="M73667 21207c0,0 3439,9638 591,11231 -1761,1132 -3367,0 -3367,0l0 -103c0,0 1155,-1007 1293,-1784 0,0 881,-431 652,-3225 0,0 -652,-1329 -976,-2135 -325,-805 -770,-4563 169,-5400 698,-417 1475,935 1638,1416z" data-name="Path 719"/>
    <polygon id="Path_720" class="fil28" points="64657,24743 64318,21125 70732,20583 70930,24311 " data-name="Path 720"/>
    <path id="Path_721" class="fil4" d="M67059 20159c0,0 -2101,-1764 -1320,-2390 782,-626 1767,2118 1767,2118 0,0 363,-2538 1355,-2565 993,-26 -23,1847 -762,2822l-324 0c0,0 1340,-1796 1063,-2514 -277,-718 -1214,2514 -1214,2514l-357 31c0,0 -758,-2243 -1317,-2211 -558,32 1234,2190 1234,2190l-125 5z" data-name="Path 721"/>
    <polygon id="Path_722" class="fil19" points="64081,21386 63993,20279 71018,19999 71018,21254 " data-name="Path 722"/>
    <polygon id="Path_723" class="fil4" points="67059,20157 67382,24516 68099,24516 67894,20124 " data-name="Path 723"/>
    <path id="Path_724" class="fil17" d="M62955 31559l3091 -214c-1154,-975 -2253,-1990 -3386,-2986l295 3200z" data-name="Path 724"/>
    <path id="Path_725" class="fil17" d="M71792 23744l-4129 284c1270,987 2554,1949 3869,2873l260 -3157z" data-name="Path 725"/>
    <path id="Path_726" class="fil12" d="M67663 24028l-3615 249c2272,1931 4736,3660 7268,5258l216 -2635c-1311,-923 -2595,-1882 -3869,-2872z" data-name="Path 726"/>
    <path id="Path_727" class="fil17" d="M62296 24397l128 1436c2327,1691 4563,3525 6886,5284l1888 -128 118 -1450c-2532,-1600 -4995,-3329 -7268,-5259l-1752 117z" data-name="Path 727"/>
    <path id="Path_728" class="fil12" d="M62661 28359c1133,996 2237,2011 3386,2986l3268 -227c-2322,-1760 -4559,-3592 -6886,-5284l232 2525z" data-name="Path 728"/>
    <polygon id="Path_729" class="fil4" points="64915,24217 65705,31368 66340,31340 66040,24140 " data-name="Path 729"/>
    <polygon id="Path_730" class="fil4" points="62596,27651 62673,28493 71439,28071 71527,27002 " data-name="Path 730"/>
    <path id="Path_731" class="fil4" d="M70892 32437c0,0 -2735,-597 -2181,-2227 554,-1631 2882,202 2882,202 0,0 -128,-810 245,-877 373,-67 344,1016 344,1016 0,0 -756,1588 -1290,1886z" data-name="Path 731"/>
    <path id="Path_732" class="fil4" d="M50659 21129c0,0 618,2693 2146,1896 1527,-798 -634,-2822 -634,-2822 0,0 821,0 831,-373 11,-373 -1056,-189 -1056,-189 0,0 -1084,153 -1287,1488z" data-name="Path 732"/>
   </g>
  </g>
  <g id="illustratii_cadouri" data-name="illustratii cadouri">
   <g id="Group_69" data-name="Group 69">
    <path id="Path_352" class="fil29" d="M10772 42248l1796 7062 106 -164 -8699 1638 191 91 -1561 -7092 -105 165 8461 -1609c195,-38 112,-296 -82,-259l-8462 1610c-66,18 -111,71 -111,130 0,12 2,24 6,35l1560 7092c21,57 82,95 151,95 14,0 27,-1 40,-4l8700 -1643c66,-18 111,-71 111,-131 0,-11 -2,-23 -6,-34l-1796 -7063c-42,-169 -342,-97 -299,71l-1 10z" data-name="Path 352"/>
    <path id="Path_353" class="fil19" d="M6425 42804l1953 7659c72,281 570,162 498,-119 -650,-2556 -1300,-5109 -1951,-7658 -72,-282 -572,-163 -500,118z" data-name="Path 353"/>
    <path id="Path_354" class="fil19" d="M12231 45184c-3199,624 -6398,1243 -9599,1857 -326,62 -188,494 137,431 3202,-608 6402,-1227 9600,-1856 324,-64 187,-495 -138,-432z" data-name="Path 354"/>
    <path id="Path_355" class="fil19" d="M7059 42935c-129,-740 -230,-1557 -18,-2293 86,-298 239,-639 600,-753 362,-114 918,18 1206,232 986,730 -1397,2400 -2107,2658 -302,109 -169,542 138,431 1082,-392 3876,-2465 2213,-3488 -808,-495 -1935,-426 -2384,388 -485,880 -309,2016 -148,2944 50,283 549,163 500,-119z" data-name="Path 355"/>
    <path id="Path_356" class="fil19" d="M6911 42964c-422,-867 -951,-1904 -1866,-2470 -868,-539 -1871,-96 -2234,725 -694,1573 2748,1791 3782,2020 322,72 461,-360 137,-431 -614,-137 -1247,-204 -1862,-344 -476,-108 -1571,-318 -1623,-862 -32,-324 377,-735 693,-865 386,-160 759,57 1034,288 659,552 1090,1335 1440,2058 127,261 628,147 499,-119l0 0z" data-name="Path 356"/>
    <path id="Path_357" class="fil29" d="M10282 43143l10 7c8,6 20,13 32,22 30,24 58,51 81,80 15,17 27,35 39,53 11,19 25,35 35,53 21,36 35,74 42,114 4,24 6,48 6,72 0,61 -14,121 -40,177 -16,32 -35,62 -57,91 -7,9 -15,19 -23,27l-9 15 -13 -5c-12,-6 -23,-11 -35,-18 -35,-18 -68,-40 -97,-66 -36,-29 -66,-64 -88,-103 -25,-41 -43,-85 -52,-131 -4,-25 -7,-50 -7,-74 0,-25 3,-50 7,-75 3,-23 10,-45 19,-67 10,-19 22,-37 34,-54 21,-30 47,-58 75,-83 10,-10 22,-19 28,-24l13 -11z" data-name="Path 357"/>
    <path id="Path_358" class="fil29" d="M8974 43117l12 5c13,3 25,8 35,15 34,17 66,36 95,58 71,54 120,126 142,205 6,27 10,54 10,81 0,53 -13,107 -39,156 -15,32 -35,63 -58,91 -8,11 -19,20 -24,26l-10 10 -12 -6c-12,-4 -24,-9 -35,-14 -34,-17 -66,-37 -95,-59 -71,-53 -121,-125 -142,-204 -6,-26 -9,-52 -9,-79 0,-54 13,-108 39,-159 15,-32 35,-63 58,-91 7,-9 15,-18 23,-25l10 -10z" data-name="Path 358"/>
    <path id="Path_359" class="fil29" d="M7940 43657l13 5c12,5 24,10 35,16 34,17 66,38 96,60 71,57 121,131 144,212 6,27 10,56 10,84 0,55 -13,109 -38,160 -15,32 -35,62 -58,91 -7,9 -15,18 -23,26l-10 9 -12 -5c-12,-5 -24,-10 -35,-16 -35,-17 -67,-37 -96,-60 -98,-75 -154,-183 -154,-297 0,-55 13,-109 39,-159 15,-32 34,-63 57,-91 8,-11 19,-21 24,-28l8 -7z" data-name="Path 359"/>
    <path id="Path_360" class="fil29" d="M9962 44440l11 7c11,6 21,13 30,20 30,23 57,47 81,74 14,16 27,32 37,50 11,18 25,33 34,49 20,32 33,67 39,103 3,19 5,39 5,59 0,58 -15,117 -43,170 -16,32 -36,63 -59,92 -8,8 -16,17 -24,25l-10 10 -13 -5c-11,-5 -23,-10 -33,-16 -35,-17 -67,-37 -97,-59 -35,-27 -65,-60 -86,-96 -24,-38 -41,-79 -50,-121 -2,-19 -4,-37 -4,-55 0,-28 3,-57 9,-85 4,-21 12,-42 22,-61 10,-18 21,-35 34,-51 23,-28 49,-54 77,-77 9,-8 19,-15 29,-22l11 -11z" data-name="Path 360"/>
    <path id="Path_361" class="fil29" d="M6014 44011l12 7c7,6 20,13 30,22 30,24 58,51 83,80 13,17 26,35 38,54 10,18 25,34 35,52 21,36 35,74 41,114 4,24 7,49 7,74 0,60 -14,119 -40,175 -16,32 -35,62 -57,91 -8,11 -19,21 -24,27l-9 11 -14 -6c-7,-5 -22,-9 -34,-17 -35,-19 -67,-41 -97,-66 -36,-30 -66,-65 -89,-103 -24,-42 -42,-86 -52,-132 -4,-24 -6,-49 -6,-74 0,-25 2,-50 6,-74 4,-23 10,-46 20,-67 10,-19 21,-37 34,-55 21,-30 46,-58 75,-83 9,-8 18,-16 28,-24l13 -6z" data-name="Path 361"/>
    <path id="Path_362" class="fil29" d="M4564 43935l13 6c13,3 25,9 35,16 35,19 67,41 96,65 101,82 159,197 159,316 0,56 -12,111 -36,162 -15,32 -34,63 -57,92 -7,9 -15,18 -24,27l-8 10 -14 -5c-13,-4 -24,-10 -35,-17 -34,-19 -67,-40 -97,-65 -100,-82 -158,-197 -158,-317 0,-55 13,-111 36,-162 16,-32 35,-62 58,-91 6,-10 14,-19 23,-28l9 -9z" data-name="Path 362"/>
    <path id="Path_363" class="fil29" d="M3565 44610l14 7c12,6 24,14 35,21 37,23 71,50 101,79 77,76 131,167 157,266 11,42 16,85 16,129 0,58 -9,115 -29,171 -13,37 -31,74 -53,108 -7,11 -14,22 -22,31l-9 12 -14 -7c-7,-5 -22,-12 -36,-21 -38,-23 -73,-50 -105,-79 -78,-75 -132,-167 -158,-266 -10,-42 -15,-84 -15,-127 0,-59 10,-117 29,-174 13,-37 31,-73 53,-107 7,-11 14,-21 22,-31l14 -12z" data-name="Path 363"/>
    <path id="Path_364" class="fil29" d="M5743 45242l12 7c12,4 24,10 35,16 35,18 68,40 97,64 101,82 159,197 159,317 0,56 -12,111 -36,162 -15,32 -34,63 -57,92 -7,10 -15,19 -24,28l-9 10 -13 -6c-12,-4 -24,-9 -34,-17 -35,-19 -68,-40 -98,-64 -100,-82 -157,-197 -157,-317 0,-55 12,-110 36,-162 15,-32 34,-63 57,-91 7,-10 15,-19 23,-28l9 -11z" data-name="Path 364"/>
    <path id="Path_365" class="fil29" d="M4518 45608l13 6c12,4 23,8 34,14 34,15 66,34 94,56 94,68 148,168 148,273 0,54 -15,107 -42,155 -16,30 -36,59 -59,85 -7,10 -15,18 -24,26l-9 9 -12 -5c-13,-3 -25,-8 -35,-14 -34,-16 -66,-35 -95,-56 -70,-51 -119,-121 -140,-198 -5,-24 -8,-49 -8,-74 0,-54 13,-108 39,-157 16,-30 36,-58 59,-85 7,-10 19,-19 24,-25l13 -10z" data-name="Path 365"/>
    <path id="Path_366" class="fil29" d="M11114 46410l14 0c13,2 26,5 38,10 37,13 73,29 106,48 20,12 39,25 57,39 19,15 36,33 51,53 31,41 56,86 74,134 11,38 17,78 17,118 0,7 0,13 0,20 -3,43 -13,86 -31,126 -15,32 -34,63 -56,92 -7,9 -15,18 -23,27l-10 10 -13 -5c-8,-5 -22,-9 -34,-17 -35,-18 -68,-40 -99,-64 -72,-58 -124,-132 -150,-214 -12,-34 -18,-69 -18,-105 0,-4 0,-8 0,-12 0,-21 6,-40 7,-62 1,-21 4,-42 8,-62 8,-35 20,-69 36,-101 5,-11 11,-21 17,-31l9 -4z" data-name="Path 366"/>
    <path id="Path_367" class="fil29" d="M9584 46535l13 5c12,4 24,9 35,14 34,16 65,34 94,56 93,68 147,168 147,273 0,54 -14,107 -41,156 -16,30 -36,58 -59,85 -8,9 -16,17 -25,25l-8 9 -13 -5c-12,-4 -24,-8 -35,-14 -34,-16 -66,-35 -95,-56 -70,-52 -119,-121 -139,-198 -6,-25 -9,-49 -9,-74 0,-54 14,-107 39,-157 17,-30 37,-58 59,-85 8,-9 16,-17 25,-25l12 -9z" data-name="Path 367"/>
    <path id="Path_368" class="fil29" d="M8756 47367l12 9c7,6 21,15 32,26 32,28 61,59 86,91 15,21 29,43 41,65 13,23 29,44 39,68 24,46 40,94 49,144 8,40 12,80 12,120 0,63 -10,126 -30,187 -14,38 -32,75 -53,111 -7,11 -15,22 -23,33l-9 12 -12 -8c-13,-7 -26,-14 -37,-22 -38,-25 -74,-53 -106,-83 -38,-39 -70,-83 -95,-129 -27,-51 -47,-105 -59,-160 -6,-35 -9,-71 -9,-107 0,-23 1,-46 3,-68 5,-52 21,-102 47,-149 20,-36 43,-71 70,-104 8,-10 17,-20 27,-29l15 -7z" data-name="Path 368"/>
    <path id="Path_369" class="fil29" d="M10662 47510l12 8c7,6 20,13 32,23 31,25 59,53 84,83 28,37 54,76 75,117 23,39 38,82 45,126 4,22 6,45 7,67 1,12 1,23 1,35 0,12 0,23 -1,35 -7,44 -18,87 -35,129 -17,36 -37,70 -61,102 -7,11 -15,21 -23,31l-10 10 -13 -7c-12,-5 -23,-11 -35,-18 -35,-21 -69,-45 -99,-72 -37,-33 -68,-71 -91,-112 -26,-45 -43,-93 -53,-143 -4,-25 -6,-51 -6,-77 0,-26 2,-52 6,-77 8,-46 26,-90 52,-130 20,-32 44,-63 72,-91 10,-11 21,-20 27,-26l14 -13z" data-name="Path 369"/>
    <path id="Path_370" class="fil29" d="M9894 48509l12 9c11,6 22,13 32,21 33,23 62,50 88,78 65,73 106,160 116,251 0,25 7,45 8,68 1,10 1,21 1,32 0,11 0,22 -1,32 -6,43 -18,84 -37,124 -16,32 -36,62 -58,91 -7,10 -15,20 -24,29l-9 10 -13 -6c-12,-5 -24,-12 -35,-18 -35,-21 -68,-46 -97,-73 -36,-35 -67,-74 -92,-116 -13,-21 -24,-44 -33,-68 -10,-23 -17,-47 -20,-71 -1,-15 -2,-30 -2,-45 0,-77 21,-153 61,-223 19,-32 42,-62 68,-91 10,-11 21,-20 27,-26l8 -8z" data-name="Path 370"/>
    <path id="Path_371" class="fil29" d="M6911 47269l12 7c6,6 20,14 31,24 32,25 60,53 85,83 28,37 54,76 75,116 22,40 37,82 44,126 0,21 8,45 8,68 1,12 2,23 2,34 0,12 -1,23 -2,35 -6,44 -17,88 -35,129 -15,35 -34,68 -56,100 -7,10 -15,20 -23,29l-9 11 -14 -6c-11,-6 -23,-13 -34,-20 -36,-20 -69,-44 -99,-71 -37,-33 -68,-71 -91,-113 -26,-44 -43,-92 -52,-141 -4,-26 -6,-52 -6,-78 0,-26 2,-52 6,-78 6,-45 24,-89 50,-129 21,-32 45,-63 72,-92 9,-8 19,-17 29,-25 2,-3 4,-6 7,-9l0 0z" data-name="Path 371"/>
    <path id="Path_372" class="fil29" d="M5643 47480l13 6 32 20c31,22 60,46 85,73 61,68 98,150 106,236 7,28 11,57 11,85 0,53 -12,105 -36,153 -16,32 -36,62 -60,91 -7,10 -15,19 -24,28l-8 9 -13 -6c-12,-5 -24,-10 -35,-16 -35,-20 -67,-43 -96,-68 -73,-66 -123,-149 -143,-239 -1,-13 -2,-26 -2,-39 0,-76 22,-150 65,-216 20,-32 43,-63 69,-92 9,-8 19,-17 29,-24l7 -1z" data-name="Path 372"/>
    <path id="Path_373" class="fil29" d="M6047 49057l11 6c11,6 22,13 32,21 32,21 60,46 86,73 61,67 98,149 105,234 6,25 9,50 9,75 0,57 -14,113 -41,164 -17,32 -37,63 -59,92 -8,9 -16,18 -25,27l-9 10 -13 -6c-12,-5 -24,-10 -35,-17 -34,-19 -66,-41 -95,-66 -73,-67 -123,-150 -144,-240 0,-10 -1,-20 -1,-30 0,-77 23,-153 66,-221 20,-31 43,-60 71,-86 9,-11 21,-20 27,-26l15 -10z" data-name="Path 373"/>
    <path id="Path_374" class="fil29" d="M4270 47772l11 6c11,6 22,13 32,20 31,22 60,46 86,72 64,67 102,148 112,234 0,22 5,42 6,62 1,10 1,20 1,30 0,10 0,20 -1,30 -6,40 -19,78 -38,114 -17,32 -37,63 -60,92 -8,9 -16,19 -25,27l-8 10 -14 -5c-7,-5 -21,-9 -34,-17 -34,-19 -67,-42 -96,-67 -35,-32 -65,-68 -89,-107 -12,-21 -23,-42 -31,-64 -10,-21 -17,-44 -19,-67 -1,-11 -2,-22 -2,-33 0,-75 23,-149 65,-215 19,-31 43,-59 70,-86 9,-11 21,-19 27,-25l7 -11z" data-name="Path 374"/>
    <path id="Path_375" class="fil29" d="M7156 48907l13 7c12,5 24,11 36,18 35,21 68,44 98,70 75,67 127,151 151,242 9,36 14,72 14,108 0,57 -11,113 -33,166 -14,35 -33,68 -56,99 -6,11 -14,21 -23,30l-8 11 -13 -7c-12,-5 -25,-11 -36,-18 -35,-20 -68,-44 -98,-70 -106,-93 -165,-219 -165,-349 0,-57 12,-113 34,-167 14,-35 32,-68 55,-100 6,-10 14,-20 23,-29l8 -11z" data-name="Path 375"/>
    <path id="Path_376" class="fil29" d="M4893 49282l12 7c11,7 21,14 31,22 31,23 59,49 84,77 28,34 52,71 73,109 21,36 35,76 41,116 4,20 6,41 6,62 1,11 2,21 2,32 0,11 -1,21 -2,32 -6,41 -19,82 -37,120 -15,32 -35,63 -57,92 -8,11 -19,22 -24,28l-9 9 -13 -5c-13,-4 -25,-10 -35,-17 -34,-19 -67,-41 -96,-66 -37,-30 -67,-65 -90,-105 -25,-41 -42,-86 -50,-132 -4,-24 -6,-48 -6,-72 0,-25 2,-49 6,-73 10,-43 28,-83 54,-120 21,-31 46,-59 73,-85 10,-10 22,-19 29,-25l8 -6z" data-name="Path 376"/>
    <path id="Path_377" class="fil29" d="M8886 44813l11 8c10,6 21,12 30,20 30,22 58,47 82,74 13,15 26,32 36,49 11,18 25,32 34,49 21,32 34,67 38,103 4,21 6,41 6,62 0,57 -15,115 -43,168 -16,31 -36,62 -59,91 -8,10 -19,20 -24,25l-10 9 -12 -4c-12,-5 -23,-10 -34,-15 -34,-18 -66,-38 -96,-60 -35,-27 -65,-60 -87,-96 -24,-38 -41,-79 -50,-122 -2,-18 -3,-36 -3,-54 0,-28 3,-57 9,-85 4,-21 11,-41 21,-61 10,-18 22,-35 35,-51 22,-28 48,-53 76,-77 9,-9 22,-16 28,-22l12 -11z" data-name="Path 377"/>
    <path id="Path_378" class="fil29" d="M11742 48204l13 5c8,5 22,9 35,17 34,19 67,40 97,64 72,61 123,138 147,223 7,31 11,62 11,93 0,56 -12,111 -36,163 -15,32 -34,63 -57,92 -6,10 -14,19 -23,27l-9 10 -13 -5c-13,-4 -25,-9 -35,-17 -35,-18 -67,-39 -97,-64 -101,-82 -158,-197 -158,-317 0,-55 13,-110 36,-162 16,-32 35,-62 56,-91 9,-11 19,-21 25,-27l8 -11z" data-name="Path 378"/>
   </g>
   <g id="Group_70" data-name="Group 70">
    <path id="Path_352-2" class="fil29" d="M24015 41161l-1446 6078 150 -97 -7483 -1339 114 130 1642 -6032 -149 98 7284 1290c167,29 207,-198 40,-228l-7284 -1289c-59,-6 -116,22 -140,69 -5,9 -8,18 -10,28l-1642 6030c-7,51 25,100 80,121 10,4 21,7 33,9l7484 1335c59,6 115,-22 139,-69 5,-9 8,-19 10,-28l1446 -6079c35,-145 -229,-179 -263,-35l-5 8z" data-name="Path 352"/>
    <path id="Path_353-2" class="fil19" d="M20382 40286l-1564 6593c-57,242 382,299 439,57 523,-2199 1045,-4397 1565,-6592 57,-242 -382,-300 -440,-58z" data-name="Path 353"/>
    <path id="Path_354-2" class="fil19" d="M23972 43903c-2760,-476 -5518,-955 -8275,-1440 -280,-50 -347,330 -67,380 2756,489 5515,969 8276,1440 280,47 346,-332 66,-380z" data-name="Path 354"/>
    <path id="Path_355-2" class="fil19" d="M20827 40580c198,-620 448,-1291 912,-1803 188,-208 445,-429 775,-410 330,20 712,292 851,546 478,869 -2065,1460 -2725,1448 -282,-5 -352,374 -66,379 1006,20 4034,-763 3144,-2066 -434,-632 -1344,-918 -2026,-415 -735,543 -1057,1487 -1305,2263 -76,237 364,293 440,58l0 0z" data-name="Path 355"/>
    <path id="Path_356-2" class="fil19" d="M20699 40558c19,-807 23,-1780 -465,-2499 -463,-684 -1428,-639 -2044,-106 -1180,1024 1430,2233 2149,2725 223,153 506,-143 282,-297 -427,-293 -897,-536 -1322,-831 -329,-228 -1102,-723 -924,-1166 106,-263 592,-462 893,-469 368,-8 572,274 695,538 292,632 314,1375 297,2048 -7,243 432,304 439,57z" data-name="Path 356"/>
    <path id="Path_357-2" class="fil29" d="M23269 41715l5 9c4,6 11,16 16,27 14,27 25,56 32,86 4,18 7,36 8,54 2,18 6,35 7,53 1,34 -3,68 -14,101 -6,20 -14,40 -24,59 -24,47 -59,90 -103,126 -25,20 -52,38 -81,54 -10,6 -20,10 -30,15l-12 9 -8 -8c-7,-8 -14,-16 -20,-24 -20,-26 -37,-53 -50,-81 -16,-35 -25,-71 -28,-108 -2,-40 2,-80 13,-119 7,-20 15,-40 25,-60 10,-19 22,-38 35,-56 12,-17 26,-33 42,-47 16,-12 32,-23 49,-33 29,-17 60,-31 92,-43 12,-4 24,-7 32,-10l14 -4z" data-name="Path 357"/>
    <path id="Path_358-2" class="fil29" d="M22254 41299l8 8c8,7 16,14 21,22 20,24 37,49 51,75 33,64 43,135 28,204 -6,22 -14,44 -25,65 -21,43 -53,80 -93,111 -25,21 -53,39 -82,54 -11,6 -23,10 -30,14l-12 4 -7 -8c-8,-7 -15,-14 -21,-22 -20,-23 -38,-48 -51,-74 -34,-64 -44,-135 -28,-203 5,-22 14,-44 24,-64 22,-43 55,-82 95,-114 25,-20 52,-38 82,-53 9,-6 19,-10 29,-14l11 -5z" data-name="Path 358"/>
    <path id="Path_359-2" class="fil29" d="M21226 41412l7 8c8,7 15,15 21,22 20,24 37,50 51,77 33,66 43,139 28,209 -6,24 -15,47 -27,69 -22,43 -54,82 -93,114 -26,20 -53,39 -83,54 -9,5 -19,10 -29,14l-11 4 -8 -8c-7,-7 -14,-15 -21,-23 -20,-23 -37,-49 -51,-76 -46,-89 -46,-190 0,-279 22,-43 54,-82 94,-114 25,-20 53,-39 82,-54 11,-6 23,-11 30,-14l10 -3z" data-name="Path 359"/>
    <path id="Path_360-2" class="fil29" d="M22494 42635l6 9c6,8 11,17 15,25 14,26 26,54 34,83 5,16 8,33 9,49 1,18 6,34 6,49 3,31 -1,63 -11,93 -5,16 -12,32 -20,47 -23,46 -58,87 -102,121 -25,20 -53,38 -83,54 -10,4 -19,9 -30,12l-11 5 -8 -8c-7,-7 -14,-14 -20,-22 -20,-23 -37,-49 -52,-75 -16,-32 -26,-67 -28,-101 -4,-37 -1,-75 9,-111 6,-15 12,-30 20,-44 11,-22 25,-44 41,-64 12,-15 26,-29 41,-42 15,-10 32,-20 48,-29 29,-15 60,-27 91,-37 11,-4 21,-7 32,-9l13 -5z" data-name="Path 360"/>
    <path id="Path_361-2" class="fil29" d="M19572 41108l6 10c4,6 11,16 16,26 14,28 24,57 32,87 4,18 7,36 8,54 1,17 6,35 6,52 2,34 -2,68 -13,101 -7,21 -15,41 -25,60 -24,47 -59,90 -102,125 -25,21 -52,39 -81,55 -11,5 -24,11 -31,14l-10 5 -9 -8c-4,-6 -14,-14 -20,-25 -20,-25 -36,-52 -48,-80 -17,-34 -26,-71 -29,-108 -3,-40 2,-80 12,-119 7,-20 16,-40 26,-60 10,-19 21,-38 34,-56 13,-17 27,-33 43,-47 15,-12 32,-23 49,-32 28,-18 59,-32 92,-43 10,-3 21,-7 32,-10l12 -1z" data-name="Path 361"/>
    <path id="Path_362-2" class="fil29" d="M18466 40612l8 8c9,6 15,14 21,23 19,25 36,52 49,80 46,95 45,202 -4,296 -22,43 -54,83 -93,116 -25,20 -52,39 -82,54 -9,6 -19,10 -29,14l-11 6 -9 -9c-8,-6 -15,-14 -20,-23 -20,-25 -36,-52 -50,-80 -45,-95 -44,-202 5,-296 22,-44 54,-83 93,-116 25,-21 53,-39 82,-55 9,-5 19,-10 29,-14l11 -4z" data-name="Path 362"/>
    <path id="Path_363-2" class="fil29" d="M17410 40839l8 10c7,9 14,18 20,27 19,29 35,60 47,92 30,82 35,171 16,256 -9,36 -22,72 -40,106 -23,45 -54,87 -91,125 -26,25 -55,48 -86,69 -9,6 -19,12 -30,17l-11 7 -8 -10c-4,-6 -13,-16 -20,-27 -20,-30 -38,-61 -52,-93 -30,-83 -36,-171 -16,-256 9,-36 22,-71 39,-104 24,-46 56,-89 94,-128 25,-25 54,-48 85,-68 10,-7 20,-13 30,-18l15 -5z" data-name="Path 363"/>
    <path id="Path_364-2" class="fil29" d="M18862 41992l7 8c8,8 15,16 21,24 20,25 37,51 51,79 46,95 44,203 -4,297 -23,43 -54,83 -94,116 -25,20 -52,38 -82,54 -9,6 -19,11 -29,15l-12 5 -7 -9c-8,-6 -15,-14 -20,-23 -20,-25 -37,-52 -51,-79 -45,-95 -44,-202 5,-296 22,-44 54,-83 93,-116 25,-21 53,-39 82,-55 9,-5 19,-10 29,-15l11 -5z" data-name="Path 364"/>
    <path id="Path_365-2" class="fil29" d="M17754 41909l8 8c8,7 15,14 21,22 20,22 37,47 51,72 46,82 48,176 5,258 -22,43 -54,80 -95,110 -25,19 -52,35 -81,49 -9,5 -19,9 -30,12l-10 5 -8 -7c-9,-6 -16,-14 -21,-22 -20,-23 -37,-47 -52,-73 -34,-61 -44,-130 -29,-197 5,-21 13,-41 23,-61 22,-42 54,-80 94,-111 25,-18 53,-35 81,-48 10,-6 23,-10 30,-13l13 -4z" data-name="Path 365"/>
    <path id="Path_366-2" class="fil29" d="M22602 44527l10 4c10,6 18,12 26,20 24,21 45,44 63,69 11,15 21,31 30,48 8,18 15,37 18,57 8,42 9,85 4,127 -7,34 -18,67 -34,98 -3,5 -6,11 -9,16 -19,33 -44,63 -75,89 -25,21 -52,39 -81,55 -9,5 -19,10 -29,14l-11 5 -8 -8c-5,-6 -14,-13 -21,-23 -19,-25 -37,-52 -51,-80 -33,-67 -44,-141 -31,-213 4,-31 14,-61 28,-89 2,-3 3,-6 5,-8 8,-17 20,-30 30,-47 9,-16 20,-32 32,-46 20,-25 43,-48 69,-69 8,-7 17,-13 26,-19l9 0z" data-name="Path 366"/>
    <path id="Path_367-2" class="fil29" d="M21352 44164l8 7c7,7 15,14 21,22 20,22 38,46 51,72 46,81 48,176 5,258 -22,43 -55,80 -96,110 -24,19 -52,35 -80,49 -10,5 -20,9 -30,13l-10 4 -8 -8c-8,-6 -15,-13 -22,-21 -19,-23 -37,-47 -51,-73 -34,-61 -44,-131 -29,-198 5,-20 13,-40 23,-60 22,-42 54,-80 94,-111 25,-18 52,-35 81,-49 10,-5 19,-9 29,-12l14 -3z" data-name="Path 367"/>
    <path id="Path_368-2" class="fil29" d="M20366 44566l6 10c3,8 10,19 14,31 14,32 24,64 31,97 3,21 5,42 5,63 1,22 5,43 4,65 0,43 -7,86 -20,128 -10,33 -23,66 -39,98 -26,49 -59,95 -99,137 -27,25 -56,49 -87,71 -10,7 -21,13 -31,19l-12 7 -6 -10c-8,-9 -14,-19 -20,-29 -20,-31 -36,-63 -50,-97 -14,-42 -21,-86 -22,-129 -1,-48 5,-96 18,-143 10,-30 22,-59 37,-87 9,-18 19,-35 30,-52 24,-39 57,-75 97,-103 30,-23 62,-43 96,-60 11,-6 22,-11 34,-15l14 -1z" data-name="Path 368"/>
    <path id="Path_369-2" class="fil29" d="M21802 45253l6 10c4,6 11,16 16,27 14,29 25,60 33,91 7,38 11,76 11,114 2,38 -4,76 -16,112 -6,19 -13,38 -22,56 -3,9 -8,18 -12,27 -5,9 -10,18 -16,27 -22,32 -49,63 -79,91 -28,23 -58,43 -90,61 -9,7 -20,12 -30,17l-12 5 -7 -8c-7,-8 -13,-17 -20,-25 -19,-27 -36,-56 -48,-87 -16,-37 -25,-76 -26,-115 -2,-43 3,-87 16,-128 7,-21 16,-42 26,-62 11,-20 23,-40 36,-59 25,-33 56,-63 93,-86 29,-19 60,-36 93,-50 12,-5 25,-9 33,-12l15 -6z" data-name="Path 369"/>
    <path id="Path_370-2" class="fil29" d="M20796 45805l6 10c7,8 12,17 17,26 16,28 28,58 37,88 22,77 18,157 -10,232 -10,20 -13,37 -21,55 -4,9 -8,18 -12,26 -5,9 -10,17 -15,25 -21,32 -48,61 -78,86 -26,20 -53,38 -83,54 -9,6 -20,11 -30,16l-11 4 -7 -8c-8,-8 -15,-16 -20,-25 -20,-27 -35,-56 -47,-87 -15,-38 -24,-78 -26,-118 -1,-21 -1,-42 2,-63 1,-21 5,-42 13,-62 5,-12 10,-24 16,-36 32,-60 79,-114 138,-156 28,-20 58,-37 90,-51 12,-6 25,-10 32,-13l9 -3z" data-name="Path 370"/>
    <path id="Path_371-2" class="fil29" d="M18959 43933l6 9c3,6 11,17 16,28 14,29 25,60 32,91 8,37 12,75 12,113 2,38 -4,76 -16,112 -8,17 -13,38 -22,56 -3,10 -7,19 -12,28 -5,9 -10,18 -15,26 -22,33 -49,64 -80,91 -26,23 -54,43 -84,61 -10,6 -20,12 -30,16l-11 6 -8 -9c-7,-8 -13,-17 -19,-25 -20,-27 -36,-56 -49,-86 -16,-37 -24,-77 -26,-116 -2,-43 3,-86 16,-127 7,-21 16,-42 27,-63 10,-20 22,-40 36,-59 24,-33 55,-63 92,-86 29,-19 60,-36 93,-50 11,-4 22,-8 33,-11 3,-2 6,-4 9,-5l0 0z" data-name="Path 371"/>
    <path id="Path_372-2" class="fil29" d="M17880 43716l7 8 17 26c16,26 29,54 38,83 20,71 16,147 -13,216 -5,25 -14,48 -26,70 -21,42 -51,79 -89,110 -26,20 -55,38 -84,53 -10,6 -20,10 -31,14l-10 5 -8 -8c-7,-7 -14,-15 -20,-24 -19,-25 -36,-53 -48,-82 -31,-73 -36,-154 -15,-230 4,-10 9,-21 14,-31 31,-59 78,-111 138,-150 29,-19 59,-37 92,-51 10,-4 21,-8 32,-11l6 2z" data-name="Path 372"/>
    <path id="Path_373-2" class="fil29" d="M17559 45074l7 8c6,9 11,17 16,26 16,26 29,54 38,83 21,71 17,146 -12,215 -5,21 -13,42 -23,62 -23,44 -57,84 -99,116 -25,20 -53,38 -83,54 -10,5 -20,10 -30,14l-13 5 -7 -8c-7,-7 -14,-15 -20,-24 -20,-25 -36,-52 -48,-81 -30,-74 -36,-154 -16,-231 4,-8 7,-16 12,-24 31,-61 79,-113 140,-153 28,-19 59,-34 91,-47 11,-5 24,-9 32,-12l15 -3z" data-name="Path 373"/>
    <path id="Path_374-2" class="fil29" d="M16685 43530l6 9c7,8 12,16 17,25 16,27 29,54 39,83 22,71 20,147 -8,217 -9,17 -13,34 -20,50 -3,8 -7,16 -11,24 -4,8 -9,16 -13,24 -21,29 -47,55 -76,77 -26,20 -55,38 -85,54 -9,5 -19,10 -30,14l-11 5 -7 -8c-4,-6 -13,-14 -20,-23 -19,-26 -35,-54 -48,-82 -15,-36 -24,-73 -27,-111 -1,-19 -1,-39 1,-59 1,-20 5,-39 12,-58 4,-9 8,-18 13,-27 30,-59 78,-110 137,-149 28,-18 58,-34 90,-46 12,-6 24,-9 32,-12l9 -7z" data-name="Path 374"/>
    <path id="Path_375-2" class="fil29" d="M18489 45291l7 9c8,8 15,17 21,25 19,27 36,56 49,85 32,75 39,157 21,235 -7,31 -18,61 -33,89 -23,44 -54,85 -93,120 -25,23 -53,43 -84,61 -9,6 -19,12 -30,16l-11 6 -7 -9c-7,-8 -14,-16 -21,-25 -19,-27 -35,-55 -48,-85 -45,-105 -41,-221 11,-323 23,-44 55,-85 94,-120 25,-23 53,-44 83,-62 10,-6 20,-11 30,-16l11 -6z" data-name="Path 375"/>
    <path id="Path_376-2" class="fil29" d="M16564 44902l6 9c6,9 11,18 16,27 15,27 26,56 35,85 7,36 12,72 12,108 3,35 -2,70 -14,103 -5,18 -12,35 -20,51 -4,8 -8,17 -12,25 -4,9 -9,17 -14,25 -22,30 -48,58 -78,83 -25,21 -52,39 -81,55 -12,6 -24,11 -31,15l-11 4 -8 -8c-9,-7 -16,-15 -21,-24 -19,-25 -35,-52 -49,-80 -16,-35 -26,-72 -28,-110 -2,-40 3,-80 15,-118 7,-20 15,-40 25,-59 10,-19 21,-37 34,-55 24,-31 55,-57 91,-78 29,-18 59,-33 91,-45 12,-5 25,-7 32,-11l10 -2z" data-name="Path 376"/>
    <path id="Path_377-2" class="fil29" d="M21500 42603l5 9c6,8 11,16 16,25 14,26 26,54 33,83 5,16 8,33 9,49 1,18 7,33 7,49 3,31 -1,63 -12,92 -5,18 -12,35 -21,51 -23,45 -57,85 -100,118 -26,20 -54,38 -83,54 -11,5 -23,10 -30,12l-11 5 -8 -8c-7,-6 -14,-14 -20,-22 -20,-23 -37,-49 -52,-75 -16,-32 -26,-66 -29,-101 -3,-37 1,-75 11,-111 5,-15 12,-29 19,-43 11,-22 25,-44 41,-64 12,-15 26,-30 41,-42 15,-11 32,-21 48,-30 29,-15 59,-27 91,-37 11,-4 24,-6 31,-8l14 -6z" data-name="Path 377"/>
    <path id="Path_378-2" class="fil29" d="M22369 46122l7 8c5,7 14,14 21,24 19,25 36,52 50,80 33,69 41,145 25,219 -6,26 -16,52 -28,76 -23,44 -55,84 -95,118 -25,20 -52,38 -81,54 -9,6 -19,11 -29,15l-12 4 -7 -8c-9,-6 -16,-14 -21,-23 -20,-25 -37,-51 -51,-79 -45,-95 -43,-202 5,-296 22,-44 54,-83 94,-116 25,-21 52,-39 81,-55 11,-6 23,-11 30,-15l11 -6z" data-name="Path 378"/>
   </g>
   <g id="Group_71" data-name="Group 71">
    <path id="Path_352-3" class="fil29" d="M32352 36194l3151 4131 21 -128 -5091 2889 148 18 -3010 -4199 -20 128 4947 -2820c114,-66 -12,-213 -126,-149l-4947 2821c-37,25 -51,69 -34,107 3,7 8,14 13,21l3009 4199c30,32 80,43 124,29 8,-3 17,-7 24,-12l5090 -2891c37,-26 51,-69 34,-107 -3,-8 -8,-15 -13,-21l-3151 -4131c-75,-99 -247,11 -171,109l2 6z" data-name="Path 352"/>
    <path id="Path_353-3" class="fil19" d="M29733 37471l3421 4477c126,165 411,-17 285,-181 -1141,-1495 -2281,-2987 -3420,-4478 -126,-164 -412,17 -286,182z" data-name="Path 353"/>
    <path id="Path_354-3" class="fil19" d="M34117 37761c-1866,1076 -3734,2149 -5605,3219 -190,108 20,355 211,247 1872,-1067 3740,-2140 5604,-3219 189,-110 -21,-356 -210,-247z" data-name="Path 354"/>
    <path id="Path_355-3" class="fil19" d="M30175 37420c-292,-446 -589,-946 -662,-1461 -30,-208 -29,-459 170,-608 198,-150 592,-183 836,-107 836,257 -211,1829 -592,2144 -162,134 46,382 211,245 580,-479 1776,-2395 423,-2696 -657,-145 -1356,138 -1412,753 -60,665 375,1353 741,1911 112,171 396,-12 285,-181l0 0z" data-name="Path 355"/>
    <path id="Path_356-3" class="fil19" d="M30089 37470c-516,-465 -1148,-1015 -1893,-1183 -707,-160 -1222,335 -1221,936 3,1152 2263,562 2989,489 226,-22 192,-327 -35,-304 -431,43 -854,134 -1287,175 -334,32 -1093,130 -1281,-207 -112,-200 32,-549 197,-699 201,-184 502,-124 743,-35 577,213 1074,621 1503,1009 156,140 443,-39 285,-181l0 0z" data-name="Path 356"/>
    <path id="Path_357-3" class="fil29" d="M32293 36870l8 3c6,2 17,4 27,7 26,9 51,20 74,34 14,8 27,16 40,26 12,9 26,17 38,26 23,19 43,40 58,64 10,14 18,30 25,45 17,38 26,79 25,121 -1,23 -5,47 -11,70 -2,8 -4,15 -7,22l-1 11 -10 0c-9,-1 -18,-2 -27,-4 -28,-4 -55,-12 -81,-21 -31,-12 -61,-28 -86,-48 -27,-21 -51,-45 -70,-73 -10,-14 -18,-30 -25,-46 -7,-16 -13,-32 -17,-49 -5,-15 -7,-30 -7,-46 1,-15 3,-29 6,-42 5,-24 14,-47 24,-69 4,-9 9,-17 12,-21l5 -10z" data-name="Path 357"/>
    <path id="Path_358-3" class="fil29" d="M31450 37130l9 1c9,-1 18,0 27,2 26,4 52,10 77,17 60,20 112,55 149,101 11,16 21,32 29,49 15,35 22,72 20,108 -1,24 -5,48 -12,71 -2,9 -6,17 -7,22l-4 8 -10 -1c-8,0 -17,0 -26,-2 -27,-3 -53,-9 -78,-17 -60,-19 -112,-54 -148,-101 -11,-15 -20,-31 -28,-48 -15,-35 -22,-72 -20,-109 0,-24 4,-48 11,-71 2,-7 4,-14 7,-21l4 -9z" data-name="Path 358"/>
    <path id="Path_359-3" class="fil29" d="M30943 37694l10 1c9,0 18,1 26,3 27,3 54,9 79,18 62,21 115,57 152,105 12,16 22,33 30,51 16,35 23,73 22,110 -1,24 -5,48 -12,71 -2,7 -4,15 -7,22l-3 8 -10 -1c-9,0 -18,-1 -27,-3 -27,-3 -53,-9 -78,-18 -84,-27 -151,-85 -183,-157 -15,-35 -22,-73 -21,-110 1,-24 5,-48 11,-71 2,-8 6,-17 8,-22l3 -7z" data-name="Path 359"/>
    <path id="Path_360-3" class="fil29" d="M32456 37766l10 2c8,2 16,4 24,7 26,8 50,18 73,30 14,7 26,15 38,24 12,9 25,15 36,24 21,16 40,36 54,57 7,12 14,24 19,37 17,37 24,78 21,118 -1,24 -5,47 -11,71 -3,7 -5,14 -9,21l-3 9 -9 -1c-9,0 -18,-1 -26,-3 -27,-3 -53,-9 -79,-17 -30,-10 -58,-24 -82,-43 -26,-19 -49,-42 -66,-67 -7,-11 -13,-23 -18,-34 -8,-19 -15,-38 -19,-57 -3,-14 -5,-29 -4,-44 2,-13 4,-26 8,-39 7,-23 16,-44 27,-65 4,-7 8,-14 12,-20l4 -10z" data-name="Path 360"/>
    <path id="Path_361-3" class="fil29" d="M29813 38328l10 3c6,2 16,4 26,7 26,9 51,21 75,34 14,8 27,17 39,26 12,9 27,17 38,26 24,18 43,40 58,64 10,15 19,30 26,46 17,38 25,79 24,120 -1,24 -4,47 -10,70 -3,9 -7,18 -8,23l-3 8 -11 0c-6,-2 -17,-2 -27,-4 -27,-5 -54,-12 -80,-22 -32,-11 -61,-27 -87,-47 -27,-21 -51,-46 -70,-73 -10,-15 -18,-30 -25,-46 -7,-16 -13,-32 -17,-49 -4,-15 -6,-31 -6,-46 0,-15 3,-29 6,-43 5,-24 13,-47 24,-69 4,-7 8,-14 12,-21l6 -7z" data-name="Path 361"/>
    <path id="Path_362-3" class="fil29" d="M28866 38587l10 1c9,-1 18,0 27,3 27,4 54,12 79,21 88,31 158,92 192,169 15,35 23,73 22,110 0,24 -4,48 -10,71 -2,7 -4,15 -7,22l-3 9 -10 -1c-9,0 -18,-1 -27,-3 -28,-5 -55,-12 -81,-21 -87,-31 -156,-93 -190,-169 -16,-36 -24,-73 -23,-111 1,-24 4,-48 10,-71 2,-7 4,-15 7,-22l4 -8z" data-name="Path 362"/>
    <path id="Path_363-3" class="fil29" d="M28419 39230l11 1c9,2 19,4 29,6 29,7 58,17 86,29 71,32 132,79 176,137 19,25 35,51 47,79 16,37 27,76 30,115 2,27 1,54 -4,81 -1,8 -2,16 -5,24l-2 10 -11 -2c-6,-1 -17,-3 -29,-6 -31,-7 -61,-16 -90,-28 -71,-32 -131,-79 -176,-137 -18,-24 -33,-50 -45,-78 -17,-37 -27,-76 -31,-116 -2,-27 -1,-54 3,-80 1,-9 3,-17 5,-25l6 -10z" data-name="Path 363"/>
    <path id="Path_364-3" class="fil29" d="M29989 39172l10 2c9,0 18,1 27,3 28,4 55,11 80,20 88,31 158,92 192,169 16,35 23,73 23,111 -1,24 -4,48 -11,71 -1,7 -4,15 -7,23l-3 8 -10 -1c-9,0 -18,-1 -27,-4 -27,-4 -54,-11 -80,-20 -88,-31 -157,-92 -191,-169 -15,-35 -23,-73 -23,-111 1,-24 5,-47 11,-70 2,-8 4,-16 7,-23l2 -9z" data-name="Path 364"/>
    <path id="Path_365-3" class="fil29" d="M29311 39666l10 0c8,0 17,0 26,1 26,3 51,9 76,17 79,23 141,75 171,143 15,34 21,71 18,108 -2,22 -6,45 -14,66 -2,8 -4,15 -8,22l-3 7 -9 0c-9,1 -18,1 -27,-1 -26,-3 -51,-9 -76,-16 -59,-18 -110,-52 -145,-97 -11,-14 -20,-30 -27,-46 -15,-34 -22,-71 -19,-108 2,-22 6,-45 13,-66 2,-9 7,-17 8,-22l6 -8z" data-name="Path 365"/>
    <path id="Path_366-3" class="fil29" d="M33751 38780l9 -3c9,-1 18,-2 28,-1 27,0 54,3 81,8 16,4 32,8 47,13 17,6 33,14 48,23 32,20 60,43 85,70 18,22 33,46 45,71 2,5 3,9 5,13 11,28 16,58 16,88 0,23 -4,47 -10,70 -2,7 -4,15 -7,22l-3 9 -10 -1c-6,-1 -16,-1 -27,-3 -27,-5 -54,-12 -80,-20 -63,-22 -118,-58 -157,-105 -18,-20 -32,-41 -42,-64 -1,-2 -2,-5 -3,-7 -6,-14 -8,-27 -14,-41 -5,-14 -9,-28 -11,-42 -5,-24 -7,-48 -6,-72 0,-8 0,-16 2,-23l4 -5z" data-name="Path 366"/>
    <path id="Path_367-3" class="fil29" d="M32810 39184l9 0c9,0 18,1 27,2 26,3 51,8 76,16 78,23 141,76 171,143 15,35 21,72 18,108 -2,23 -7,46 -14,67 -2,7 -5,15 -8,22l-3 7 -10 0c-8,0 -17,-1 -26,-1 -26,-4 -52,-9 -77,-17 -59,-18 -110,-52 -145,-97 -10,-15 -19,-30 -26,-45 -15,-35 -22,-71 -19,-108 1,-23 6,-45 13,-67 2,-8 5,-15 8,-21l6 -9z" data-name="Path 367"/>
    <path id="Path_368-3" class="fil29" d="M32517 39891l10 3c6,3 18,6 28,10 28,12 55,25 81,40 15,11 31,22 45,33 14,12 30,22 44,35 28,24 52,52 72,82 16,23 30,48 42,74 18,40 29,83 33,126 2,27 1,55 -2,82 -1,9 -3,17 -5,26l-2 9 -11 -3c-10,-1 -20,-3 -30,-6 -31,-8 -62,-18 -91,-31 -35,-16 -68,-37 -97,-62 -32,-26 -60,-57 -83,-89 -14,-22 -26,-44 -36,-67 -7,-14 -12,-29 -17,-44 -12,-34 -16,-69 -13,-105 2,-27 7,-54 15,-81 3,-8 6,-17 9,-24l8 -8z" data-name="Path 368"/>
    <path id="Path_369-3" class="fil29" d="M33775 39579l10 2c6,2 16,5 26,8 28,10 54,21 78,35 29,18 56,38 81,59 26,21 47,45 64,71 9,14 17,27 24,42 4,7 8,14 11,22 3,7 6,15 9,22 8,30 13,60 14,90 0,27 -4,53 -10,79 -2,8 -4,16 -6,24l-3 8 -10 -1c-9,-1 -19,-3 -28,-5 -29,-5 -57,-14 -84,-25 -33,-13 -63,-30 -89,-52 -30,-23 -55,-50 -75,-80 -10,-15 -18,-31 -25,-48 -8,-16 -14,-33 -19,-50 -8,-31 -9,-63 -3,-94 3,-25 10,-50 20,-74 3,-9 8,-17 10,-22l5 -11z" data-name="Path 369"/>
    <path id="Path_370-3" class="fil29" d="M33568 40380l10 2c9,2 18,4 27,7 27,8 53,19 78,31 62,33 113,80 145,136 7,16 17,27 24,42 4,6 8,13 11,20 3,7 5,14 8,21 8,28 12,57 11,87 -1,23 -5,47 -11,70 -2,8 -4,16 -7,24l-3 8 -10 -1c-9,-1 -18,-2 -27,-4 -29,-6 -57,-15 -83,-26 -33,-15 -64,-33 -92,-54 -15,-12 -28,-24 -40,-37 -14,-12 -25,-26 -33,-41 -6,-9 -10,-19 -14,-28 -22,-49 -31,-103 -25,-155 3,-25 9,-50 18,-73 3,-10 8,-18 10,-23l3 -6z" data-name="Path 370"/>
    <path id="Path_371-3" class="fil29" d="M31311 40219l9 2c6,2 17,5 27,9 27,9 53,21 78,35 29,17 56,37 81,58 25,21 47,45 64,71 6,14 17,28 24,42 4,7 8,14 11,22 3,7 6,15 8,22 10,30 14,60 15,90 0,26 -2,51 -8,76 -1,8 -3,16 -6,23l-3 9 -10 -1c-10,-1 -19,-3 -28,-5 -29,-6 -57,-14 -83,-25 -33,-13 -64,-31 -90,-53 -29,-23 -54,-49 -74,-79 -10,-15 -18,-32 -26,-48 -7,-17 -13,-34 -18,-51 -9,-31 -10,-62 -4,-94 4,-25 10,-49 20,-73 3,-8 6,-15 11,-22 0,-3 1,-6 2,-8l0 0z" data-name="Path 371"/>
    <path id="Path_372-3" class="fil29" d="M30561 40622l10 2 26 6c26,7 51,17 75,28 58,31 105,75 134,128 13,17 24,35 32,53 15,33 22,69 21,105 -2,24 -6,48 -13,71 -2,8 -4,15 -8,23l-3 7 -9 -1c-9,0 -18,-1 -27,-3 -28,-5 -55,-12 -81,-22 -65,-27 -121,-70 -159,-123 -4,-8 -8,-17 -12,-25 -22,-48 -29,-100 -21,-152 4,-24 11,-49 19,-73 3,-7 7,-14 11,-22l5 -2z" data-name="Path 372"/>
    <path id="Path_373-3" class="fil29" d="M31266 41544l9 2c9,1 18,4 27,6 26,7 51,17 75,29 58,30 105,74 134,127 10,14 20,30 27,46 16,37 23,75 20,114 -1,24 -5,48 -12,71 -2,7 -5,15 -8,22l-3 9 -10 -1c-9,-1 -18,-2 -27,-4 -27,-5 -54,-12 -80,-22 -65,-27 -120,-70 -159,-123 -3,-6 -7,-12 -10,-19 -22,-49 -29,-102 -20,-155 4,-24 11,-47 20,-70 3,-9 8,-17 10,-22l7 -10z" data-name="Path 373"/>
    <path id="Path_374-3" class="fil29" d="M29766 41100l10 1c8,2 17,4 26,7 26,7 51,16 75,27 60,29 107,73 137,126 7,14 16,26 22,38 4,6 7,13 10,19 3,7 5,13 7,20 8,26 10,54 8,81 -1,24 -6,47 -12,71 -2,7 -5,15 -8,22l-3 9 -10 -1c-6,-1 -16,-1 -26,-3 -28,-6 -55,-13 -81,-23 -31,-13 -61,-29 -87,-50 -14,-10 -27,-21 -38,-34 -13,-11 -23,-24 -31,-38 -4,-7 -7,-14 -11,-21 -21,-48 -28,-100 -19,-151 4,-24 11,-47 20,-70 3,-9 8,-16 10,-22l1 -8z" data-name="Path 374"/>
    <path id="Path_375-3" class="fil29" d="M31932 41214l10 1c10,1 19,2 28,4 29,6 56,14 83,24 67,27 124,70 165,123 16,20 29,43 40,66 16,36 25,74 26,113 0,25 -2,50 -8,75 -1,8 -3,16 -6,24l-3 8 -10 -1c-9,-1 -18,-2 -28,-4 -28,-6 -56,-14 -82,-24 -94,-37 -167,-105 -204,-188 -16,-36 -25,-75 -26,-114 -1,-25 1,-50 6,-75 2,-8 4,-16 7,-24l2 -8z" data-name="Path 375"/>
    <path id="Path_376-3" class="fil29" d="M30593 41932l10 2c9,2 17,5 26,7 26,9 51,19 75,32 28,16 54,34 78,54 24,19 44,41 59,66 8,12 15,25 22,38 3,7 7,13 10,20 3,7 5,14 8,21 7,27 11,56 10,84 -1,24 -4,48 -10,71 -2,9 -6,18 -8,23l-2 8 -11 -1c-9,1 -18,0 -27,-3 -27,-5 -54,-12 -80,-22 -32,-11 -61,-27 -87,-48 -28,-21 -51,-46 -69,-73 -10,-15 -18,-30 -25,-46 -7,-15 -12,-31 -16,-47 -6,-29 -6,-59 0,-88 5,-24 12,-48 22,-70 3,-9 9,-16 11,-22l4 -6z" data-name="Path 376"/>
    <path id="Path_377-3" class="fil29" d="M31875 38233l9 2c9,1 17,4 26,6 25,8 50,18 72,30 14,7 26,15 38,24 12,9 25,15 36,24 22,16 40,36 53,58 8,12 15,25 21,38 16,37 23,77 21,116 -2,24 -6,48 -12,71 -3,8 -7,17 -8,22l-4 7 -10 0c-8,0 -17,-1 -26,-2 -26,-4 -52,-10 -78,-18 -30,-10 -58,-24 -82,-43 -27,-19 -49,-42 -67,-68 -7,-11 -13,-22 -18,-34 -8,-18 -14,-36 -18,-55 -3,-15 -5,-29 -4,-44 2,-13 4,-27 8,-40 7,-22 16,-44 27,-65 3,-8 9,-15 12,-20l4 -9z" data-name="Path 377"/>
    <path id="Path_378-3" class="fil29" d="M34662 39793l9 1c7,1 17,1 27,3 28,5 55,12 81,21 63,23 118,61 157,111 13,17 25,37 34,57 15,35 23,73 23,112 -1,23 -4,47 -10,70 -2,8 -4,15 -7,22l-3 9 -10 -1c-9,0 -18,-1 -27,-3 -28,-4 -55,-11 -80,-20 -88,-32 -157,-93 -191,-170 -16,-35 -24,-73 -23,-111 1,-23 4,-47 10,-70 2,-8 6,-17 7,-22l3 -9z" data-name="Path 378"/>
   </g>
  </g>
 </g>
</svg>
