<svg xmlns="http://www.w3.org/2000/svg" xmlns:xlink="http://www.w3.org/1999/xlink" width="1922.142" height="72.142" viewBox="0 0 1922.142 72.142">
  <defs>
    <clipPath id="clip-path">
      <rect width="1920.284" height="28.284" fill="none"/>
    </clipPath>
  </defs>
  <g id="Group_92" data-name="Group 92" transform="translate(0.142 -1577)">
    <path id="Path_735" data-name="Path 735" d="M0,0H1922V58H0Z" transform="translate(0 1577)" fill="#da3636"/>
    <g id="Repeat_Grid_11" data-name="Repeat Grid 11" transform="translate(-0.142 1620.858)" clip-path="url(#clip-path)">
      <g transform="translate(0.142 -1620.858)">
        <rect id="Rectangle_39" data-name="Rectangle 39" width="20" height="20" transform="translate(14 1620.858) rotate(45)" fill="#da3636"/>
      </g>
      <g transform="translate(29.142 -1620.858)">
        <rect id="Rectangle_39-2" data-name="Rectangle 39" width="20" height="20" transform="translate(14 1620.858) rotate(45)" fill="#da3636"/>
      </g>
      <g transform="translate(58.142 -1620.858)">
        <rect id="Rectangle_39-3" data-name="Rectangle 39" width="20" height="20" transform="translate(14 1620.858) rotate(45)" fill="#da3636"/>
      </g>
      <g transform="translate(87.142 -1620.858)">
        <rect id="Rectangle_39-4" data-name="Rectangle 39" width="20" height="20" transform="translate(14 1620.858) rotate(45)" fill="#da3636"/>
      </g>
      <g transform="translate(116.142 -1620.858)">
        <rect id="Rectangle_39-5" data-name="Rectangle 39" width="20" height="20" transform="translate(14 1620.858) rotate(45)" fill="#da3636"/>
      </g>
      <g transform="translate(145.142 -1620.858)">
        <rect id="Rectangle_39-6" data-name="Rectangle 39" width="20" height="20" transform="translate(14 1620.858) rotate(45)" fill="#da3636"/>
      </g>
      <g transform="translate(174.142 -1620.858)">
        <rect id="Rectangle_39-7" data-name="Rectangle 39" width="20" height="20" transform="translate(14 1620.858) rotate(45)" fill="#da3636"/>
      </g>
      <g transform="translate(203.142 -1620.858)">
        <rect id="Rectangle_39-8" data-name="Rectangle 39" width="20" height="20" transform="translate(14 1620.858) rotate(45)" fill="#da3636"/>
      </g>
      <g transform="translate(232.142 -1620.858)">
        <rect id="Rectangle_39-9" data-name="Rectangle 39" width="20" height="20" transform="translate(14 1620.858) rotate(45)" fill="#da3636"/>
      </g>
      <g transform="translate(261.142 -1620.858)">
        <rect id="Rectangle_39-10" data-name="Rectangle 39" width="20" height="20" transform="translate(14 1620.858) rotate(45)" fill="#da3636"/>
      </g>
      <g transform="translate(290.142 -1620.858)">
        <rect id="Rectangle_39-11" data-name="Rectangle 39" width="20" height="20" transform="translate(14 1620.858) rotate(45)" fill="#da3636"/>
      </g>
      <g transform="translate(319.142 -1620.858)">
        <rect id="Rectangle_39-12" data-name="Rectangle 39" width="20" height="20" transform="translate(14 1620.858) rotate(45)" fill="#da3636"/>
      </g>
      <g transform="translate(348.142 -1620.858)">
        <rect id="Rectangle_39-13" data-name="Rectangle 39" width="20" height="20" transform="translate(14 1620.858) rotate(45)" fill="#da3636"/>
      </g>
      <g transform="translate(377.142 -1620.858)">
        <rect id="Rectangle_39-14" data-name="Rectangle 39" width="20" height="20" transform="translate(14 1620.858) rotate(45)" fill="#da3636"/>
      </g>
      <g transform="translate(406.142 -1620.858)">
        <rect id="Rectangle_39-15" data-name="Rectangle 39" width="20" height="20" transform="translate(14 1620.858) rotate(45)" fill="#da3636"/>
      </g>
      <g transform="translate(435.142 -1620.858)">
        <rect id="Rectangle_39-16" data-name="Rectangle 39" width="20" height="20" transform="translate(14 1620.858) rotate(45)" fill="#da3636"/>
      </g>
      <g transform="translate(464.142 -1620.858)">
        <rect id="Rectangle_39-17" data-name="Rectangle 39" width="20" height="20" transform="translate(14 1620.858) rotate(45)" fill="#da3636"/>
      </g>
      <g transform="translate(493.142 -1620.858)">
        <rect id="Rectangle_39-18" data-name="Rectangle 39" width="20" height="20" transform="translate(14 1620.858) rotate(45)" fill="#da3636"/>
      </g>
      <g transform="translate(522.142 -1620.858)">
        <rect id="Rectangle_39-19" data-name="Rectangle 39" width="20" height="20" transform="translate(14 1620.858) rotate(45)" fill="#da3636"/>
      </g>
      <g transform="translate(551.142 -1620.858)">
        <rect id="Rectangle_39-20" data-name="Rectangle 39" width="20" height="20" transform="translate(14 1620.858) rotate(45)" fill="#da3636"/>
      </g>
      <g transform="translate(580.142 -1620.858)">
        <rect id="Rectangle_39-21" data-name="Rectangle 39" width="20" height="20" transform="translate(14 1620.858) rotate(45)" fill="#da3636"/>
      </g>
      <g transform="translate(609.142 -1620.858)">
        <rect id="Rectangle_39-22" data-name="Rectangle 39" width="20" height="20" transform="translate(14 1620.858) rotate(45)" fill="#da3636"/>
      </g>
      <g transform="translate(638.142 -1620.858)">
        <rect id="Rectangle_39-23" data-name="Rectangle 39" width="20" height="20" transform="translate(14 1620.858) rotate(45)" fill="#da3636"/>
      </g>
      <g transform="translate(667.142 -1620.858)">
        <rect id="Rectangle_39-24" data-name="Rectangle 39" width="20" height="20" transform="translate(14 1620.858) rotate(45)" fill="#da3636"/>
      </g>
      <g transform="translate(696.142 -1620.858)">
        <rect id="Rectangle_39-25" data-name="Rectangle 39" width="20" height="20" transform="translate(14 1620.858) rotate(45)" fill="#da3636"/>
      </g>
      <g transform="translate(725.142 -1620.858)">
        <rect id="Rectangle_39-26" data-name="Rectangle 39" width="20" height="20" transform="translate(14 1620.858) rotate(45)" fill="#da3636"/>
      </g>
      <g transform="translate(754.142 -1620.858)">
        <rect id="Rectangle_39-27" data-name="Rectangle 39" width="20" height="20" transform="translate(14 1620.858) rotate(45)" fill="#da3636"/>
      </g>
      <g transform="translate(783.142 -1620.858)">
        <rect id="Rectangle_39-28" data-name="Rectangle 39" width="20" height="20" transform="translate(14 1620.858) rotate(45)" fill="#da3636"/>
      </g>
      <g transform="translate(812.142 -1620.858)">
        <rect id="Rectangle_39-29" data-name="Rectangle 39" width="20" height="20" transform="translate(14 1620.858) rotate(45)" fill="#da3636"/>
      </g>
      <g transform="translate(841.142 -1620.858)">
        <rect id="Rectangle_39-30" data-name="Rectangle 39" width="20" height="20" transform="translate(14 1620.858) rotate(45)" fill="#da3636"/>
      </g>
      <g transform="translate(870.142 -1620.858)">
        <rect id="Rectangle_39-31" data-name="Rectangle 39" width="20" height="20" transform="translate(14 1620.858) rotate(45)" fill="#da3636"/>
      </g>
      <g transform="translate(899.142 -1620.858)">
        <rect id="Rectangle_39-32" data-name="Rectangle 39" width="20" height="20" transform="translate(14 1620.858) rotate(45)" fill="#da3636"/>
      </g>
      <g transform="translate(928.142 -1620.858)">
        <rect id="Rectangle_39-33" data-name="Rectangle 39" width="20" height="20" transform="translate(14 1620.858) rotate(45)" fill="#da3636"/>
      </g>
      <g transform="translate(957.142 -1620.858)">
        <rect id="Rectangle_39-34" data-name="Rectangle 39" width="20" height="20" transform="translate(14 1620.858) rotate(45)" fill="#da3636"/>
      </g>
      <g transform="translate(986.142 -1620.858)">
        <rect id="Rectangle_39-35" data-name="Rectangle 39" width="20" height="20" transform="translate(14 1620.858) rotate(45)" fill="#da3636"/>
      </g>
      <g transform="translate(1015.142 -1620.858)">
        <rect id="Rectangle_39-36" data-name="Rectangle 39" width="20" height="20" transform="translate(14 1620.858) rotate(45)" fill="#da3636"/>
      </g>
      <g transform="translate(1044.142 -1620.858)">
        <rect id="Rectangle_39-37" data-name="Rectangle 39" width="20" height="20" transform="translate(14 1620.858) rotate(45)" fill="#da3636"/>
      </g>
      <g transform="translate(1073.142 -1620.858)">
        <rect id="Rectangle_39-38" data-name="Rectangle 39" width="20" height="20" transform="translate(14 1620.858) rotate(45)" fill="#da3636"/>
      </g>
      <g transform="translate(1102.142 -1620.858)">
        <rect id="Rectangle_39-39" data-name="Rectangle 39" width="20" height="20" transform="translate(14 1620.858) rotate(45)" fill="#da3636"/>
      </g>
      <g transform="translate(1131.142 -1620.858)">
        <rect id="Rectangle_39-40" data-name="Rectangle 39" width="20" height="20" transform="translate(14 1620.858) rotate(45)" fill="#da3636"/>
      </g>
      <g transform="translate(1160.142 -1620.858)">
        <rect id="Rectangle_39-41" data-name="Rectangle 39" width="20" height="20" transform="translate(14 1620.858) rotate(45)" fill="#da3636"/>
      </g>
      <g transform="translate(1189.142 -1620.858)">
        <rect id="Rectangle_39-42" data-name="Rectangle 39" width="20" height="20" transform="translate(14 1620.858) rotate(45)" fill="#da3636"/>
      </g>
      <g transform="translate(1218.142 -1620.858)">
        <rect id="Rectangle_39-43" data-name="Rectangle 39" width="20" height="20" transform="translate(14 1620.858) rotate(45)" fill="#da3636"/>
      </g>
      <g transform="translate(1247.142 -1620.858)">
        <rect id="Rectangle_39-44" data-name="Rectangle 39" width="20" height="20" transform="translate(14 1620.858) rotate(45)" fill="#da3636"/>
      </g>
      <g transform="translate(1276.142 -1620.858)">
        <rect id="Rectangle_39-45" data-name="Rectangle 39" width="20" height="20" transform="translate(14 1620.858) rotate(45)" fill="#da3636"/>
      </g>
      <g transform="translate(1305.142 -1620.858)">
        <rect id="Rectangle_39-46" data-name="Rectangle 39" width="20" height="20" transform="translate(14 1620.858) rotate(45)" fill="#da3636"/>
      </g>
      <g transform="translate(1334.142 -1620.858)">
        <rect id="Rectangle_39-47" data-name="Rectangle 39" width="20" height="20" transform="translate(14 1620.858) rotate(45)" fill="#da3636"/>
      </g>
      <g transform="translate(1363.142 -1620.858)">
        <rect id="Rectangle_39-48" data-name="Rectangle 39" width="20" height="20" transform="translate(14 1620.858) rotate(45)" fill="#da3636"/>
      </g>
      <g transform="translate(1392.142 -1620.858)">
        <rect id="Rectangle_39-49" data-name="Rectangle 39" width="20" height="20" transform="translate(14 1620.858) rotate(45)" fill="#da3636"/>
      </g>
      <g transform="translate(1421.142 -1620.858)">
        <rect id="Rectangle_39-50" data-name="Rectangle 39" width="20" height="20" transform="translate(14 1620.858) rotate(45)" fill="#da3636"/>
      </g>
      <g transform="translate(1450.142 -1620.858)">
        <rect id="Rectangle_39-51" data-name="Rectangle 39" width="20" height="20" transform="translate(14 1620.858) rotate(45)" fill="#da3636"/>
      </g>
      <g transform="translate(1479.142 -1620.858)">
        <rect id="Rectangle_39-52" data-name="Rectangle 39" width="20" height="20" transform="translate(14 1620.858) rotate(45)" fill="#da3636"/>
      </g>
      <g transform="translate(1508.142 -1620.858)">
        <rect id="Rectangle_39-53" data-name="Rectangle 39" width="20" height="20" transform="translate(14 1620.858) rotate(45)" fill="#da3636"/>
      </g>
      <g transform="translate(1537.142 -1620.858)">
        <rect id="Rectangle_39-54" data-name="Rectangle 39" width="20" height="20" transform="translate(14 1620.858) rotate(45)" fill="#da3636"/>
      </g>
      <g transform="translate(1566.142 -1620.858)">
        <rect id="Rectangle_39-55" data-name="Rectangle 39" width="20" height="20" transform="translate(14 1620.858) rotate(45)" fill="#da3636"/>
      </g>
      <g transform="translate(1595.142 -1620.858)">
        <rect id="Rectangle_39-56" data-name="Rectangle 39" width="20" height="20" transform="translate(14 1620.858) rotate(45)" fill="#da3636"/>
      </g>
      <g transform="translate(1624.142 -1620.858)">
        <rect id="Rectangle_39-57" data-name="Rectangle 39" width="20" height="20" transform="translate(14 1620.858) rotate(45)" fill="#da3636"/>
      </g>
      <g transform="translate(1653.142 -1620.858)">
        <rect id="Rectangle_39-58" data-name="Rectangle 39" width="20" height="20" transform="translate(14 1620.858) rotate(45)" fill="#da3636"/>
      </g>
      <g transform="translate(1682.142 -1620.858)">
        <rect id="Rectangle_39-59" data-name="Rectangle 39" width="20" height="20" transform="translate(14 1620.858) rotate(45)" fill="#da3636"/>
      </g>
      <g transform="translate(1711.142 -1620.858)">
        <rect id="Rectangle_39-60" data-name="Rectangle 39" width="20" height="20" transform="translate(14 1620.858) rotate(45)" fill="#da3636"/>
      </g>
      <g transform="translate(1740.142 -1620.858)">
        <rect id="Rectangle_39-61" data-name="Rectangle 39" width="20" height="20" transform="translate(14 1620.858) rotate(45)" fill="#da3636"/>
      </g>
      <g transform="translate(1769.142 -1620.858)">
        <rect id="Rectangle_39-62" data-name="Rectangle 39" width="20" height="20" transform="translate(14 1620.858) rotate(45)" fill="#da3636"/>
      </g>
      <g transform="translate(1798.142 -1620.858)">
        <rect id="Rectangle_39-63" data-name="Rectangle 39" width="20" height="20" transform="translate(14 1620.858) rotate(45)" fill="#da3636"/>
      </g>
      <g transform="translate(1827.142 -1620.858)">
        <rect id="Rectangle_39-64" data-name="Rectangle 39" width="20" height="20" transform="translate(14 1620.858) rotate(45)" fill="#da3636"/>
      </g>
      <g transform="translate(1856.142 -1620.858)">
        <rect id="Rectangle_39-65" data-name="Rectangle 39" width="20" height="20" transform="translate(14 1620.858) rotate(45)" fill="#da3636"/>
      </g>
      <g transform="translate(1885.142 -1620.858)">
        <rect id="Rectangle_39-66" data-name="Rectangle 39" width="20" height="20" transform="translate(14 1620.858) rotate(45)" fill="#da3636"/>
      </g>
      <g transform="translate(1914.142 -1620.858)">
        <rect id="Rectangle_39-67" data-name="Rectangle 39" width="20" height="20" transform="translate(14 1620.858) rotate(45)" fill="#da3636"/>
      </g>
    </g>
  </g>
</svg>
