<?xml version="1.0" encoding="UTF-8"?>
<!DOCTYPE svg PUBLIC "-//W3C//DTD SVG 1.1//EN" "http://www.w3.org/Graphics/SVG/1.1/DTD/svg11.dtd">
<!-- Creator: CorelDRAW 2020 (64-Bit Evaluation Version) -->
<svg xmlns="http://www.w3.org/2000/svg" xml:space="preserve" width="6000px" height="800px" version="1.1" style="shape-rendering:geometricPrecision; text-rendering:geometricPrecision; image-rendering:optimizeQuality; fill-rule:evenodd; clip-rule:evenodd"
viewBox="0 0 600000 80000"
 xmlns:xlink="http://www.w3.org/1999/xlink"
 xmlns:xodm="http://www.corel.com/coreldraw/odm/2003">
 <defs>
  <style type="text/css">
   <![CDATA[
    .fil0 {fill:#6E99F5;fill-rule:nonzero}
   ]]>
  </style>
 </defs>
 <g id="Layer_x0020_1">
  <metadata id="CorelCorpID_0Corel-Layer"/>
  <g id="Group_91" data-name="Group 91">
   <polygon id="Polygon_6" class="fil0" points="40937,4062 52187,60312 29687,60312 " data-name="Polygon 6"/>
   <polygon id="Polygon_7" class="fil0" points="130625,19687 141875,75937 119375,75937 " data-name="Polygon 7"/>
   <polygon id="Polygon_8" class="fil0" points="195625,9062 206875,65313 184375,65313 " data-name="Polygon 8"/>
   <polygon id="Polygon_9" class="fil0" points="220312,24687 231562,69375 209062,69375 " data-name="Polygon 9"/>
   <polygon id="Polygon_10" class="fil0" points="335625,6875 346875,63125 324375,63125 " data-name="Polygon 10"/>
   <polygon id="Polygon_11" class="fil0" points="313125,19687 324375,75937 301875,75937 " data-name="Polygon 11"/>
   <polygon id="Polygon_12" class="fil0" points="418750,4062 430000,60312 407500,60312 " data-name="Polygon 12"/>
   <polygon id="Polygon_29" class="fil0" points="495625,27187 506875,70938 484375,70938 " data-name="Polygon 29"/>
   <polygon id="Polygon_13" class="fil0" points="461250,19687 472500,75937 450000,75937 " data-name="Polygon 13"/>
   <polygon id="Polygon_15" class="fil0" points="551250,9062 562500,65313 540000,65313 " data-name="Polygon 15"/>
   <polygon id="Polygon_14" class="fil0" points="573750,4062 585000,60312 562500,60312 " data-name="Polygon 14"/>
   <g id="Group_74" data-name="Group 74">
    <polygon id="Polygon_16" class="fil0" points="11406,21562 17812,36562 5000,36562 " data-name="Polygon 16"/>
    <polygon id="Polygon_17" class="fil0" points="11250,29062 20312,50313 2187,50313 " data-name="Polygon 17"/>
    <polygon id="Polygon_18" class="fil0" points="11250,41562 20312,62812 2187,62812 " data-name="Polygon 18"/>
   </g>
   <g id="Group_78" data-name="Group 78">
    <polygon id="Polygon_16-2" class="fil0" points="358281,19062 364687,34062 351875,34062 " data-name="Polygon 16"/>
    <polygon id="Polygon_17-2" class="fil0" points="358125,26562 367188,47812 349063,47812 " data-name="Polygon 17"/>
    <polygon id="Polygon_18-2" class="fil0" points="358125,39062 367188,60312 349063,60312 " data-name="Polygon 18"/>
   </g>
   <g id="Group_79" data-name="Group 79">
    <polygon id="Polygon_16-3" class="fil0" points="445469,19062 451875,34062 439063,34062 " data-name="Polygon 16"/>
    <polygon id="Polygon_17-3" class="fil0" points="445313,26562 454375,47812 436250,47812 " data-name="Polygon 17"/>
    <polygon id="Polygon_18-3" class="fil0" points="445313,39062 454375,60312 436250,60312 " data-name="Polygon 18"/>
   </g>
   <g id="Group_87" data-name="Group 87">
    <polygon id="Polygon_16-4" class="fil0" points="519531,19687 525938,34687 513125,34687 " data-name="Polygon 16"/>
    <polygon id="Polygon_17-4" class="fil0" points="519375,27187 528438,48437 510313,48437 " data-name="Polygon 17"/>
    <polygon id="Polygon_18-4" class="fil0" points="519375,39687 528438,60937 510313,60937 " data-name="Polygon 18"/>
   </g>
   <g id="Group_80" data-name="Group 80">
    <polygon id="Polygon_16-5" class="fil0" points="588906,18437 595313,33437 582500,33437 " data-name="Polygon 16"/>
    <polygon id="Polygon_17-5" class="fil0" points="588750,25937 597813,47187 579688,47187 " data-name="Polygon 17"/>
    <polygon id="Polygon_18-5" class="fil0" points="588750,38437 597813,59688 579688,59688 " data-name="Polygon 18"/>
   </g>
   <g id="Group_75" data-name="Group 75">
    <polygon id="Polygon_16-6" class="fil0" points="68906,31250 73437,41875 64375,41875 " data-name="Polygon 16"/>
    <polygon id="Polygon_17-6" class="fil0" points="68906,36562 75312,51562 62500,51562 " data-name="Polygon 17"/>
    <polygon id="Polygon_18-6" class="fil0" points="68906,45312 75312,60312 62500,60312 " data-name="Polygon 18"/>
   </g>
   <g id="Group_76" data-name="Group 76">
    <polygon id="Polygon_16-7" class="fil0" points="181719,32187 186250,42812 177187,42812 " data-name="Polygon 16"/>
    <polygon id="Polygon_17-7" class="fil0" points="181719,37500 188125,52500 175312,52500 " data-name="Polygon 17"/>
    <polygon id="Polygon_18-7" class="fil0" points="181719,46250 188125,61250 175312,61250 " data-name="Polygon 18"/>
   </g>
   <g id="Group_77" data-name="Group 77">
    <polygon id="Polygon_16-8" class="fil0" points="235781,28437 240312,39062 231250,39062 " data-name="Polygon 16"/>
    <polygon id="Polygon_17-8" class="fil0" points="235781,33750 242187,48750 229375,48750 " data-name="Polygon 17"/>
    <polygon id="Polygon_18-8" class="fil0" points="235781,42500 242187,57500 229375,57500 " data-name="Polygon 18"/>
   </g>
   <g id="Group_81" data-name="Group 81">
    <polygon id="Polygon_19" class="fil0" points="86719,11562 93125,26562 80312,26562 " data-name="Polygon 19"/>
    <polygon id="Polygon_21" class="fil0" points="86719,43750 93125,58750 80312,58750 " data-name="Polygon 21"/>
    <polygon id="Polygon_20" class="fil0" points="86562,19062 95625,49687 77500,49687 " data-name="Polygon 20"/>
   </g>
   <g id="Group_82" data-name="Group 82">
    <polygon id="Polygon_19-2" class="fil0" points="107031,22187 113437,37187 100625,37187 " data-name="Polygon 19"/>
    <polygon id="Polygon_21-2" class="fil0" points="107031,54375 113437,69375 100625,69375 " data-name="Polygon 21"/>
    <polygon id="Polygon_20-2" class="fil0" points="106875,29687 115937,60312 97812,60312 " data-name="Polygon 20"/>
   </g>
   <g id="Group_83" data-name="Group 83">
    <polygon id="Polygon_19-3" class="fil0" points="147031,10312 153437,25312 140625,25312 " data-name="Polygon 19"/>
    <polygon id="Polygon_21-3" class="fil0" points="147031,42500 153437,57500 140625,57500 " data-name="Polygon 21"/>
    <polygon id="Polygon_20-3" class="fil0" points="146875,17812 155937,48437 137812,48437 " data-name="Polygon 20"/>
   </g>
   <g id="Group_84" data-name="Group 84">
    <polygon id="Polygon_19-4" class="fil0" points="249844,14062 256250,29062 243437,29062 " data-name="Polygon 19"/>
    <polygon id="Polygon_21-4" class="fil0" points="249844,46250 256250,61250 243437,61250 " data-name="Polygon 21"/>
    <polygon id="Polygon_20-4" class="fil0" points="249687,21562 258750,52188 240625,52188 " data-name="Polygon 20"/>
   </g>
   <g id="Group_85" data-name="Group 85">
    <polygon id="Polygon_19-5" class="fil0" points="297344,28125 303750,43125 290938,43125 " data-name="Polygon 19"/>
    <polygon id="Polygon_21-5" class="fil0" points="297344,60312 303750,75312 290938,75312 " data-name="Polygon 21"/>
    <polygon id="Polygon_20-5" class="fil0" points="297187,35625 306250,66250 288125,66250 " data-name="Polygon 20"/>
   </g>
   <g id="Group_86" data-name="Group 86">
    <polygon id="Polygon_19-6" class="fil0" points="379531,11562 385938,26562 373125,26562 " data-name="Polygon 19"/>
    <polygon id="Polygon_21-6" class="fil0" points="379531,43750 385938,58750 373125,58750 " data-name="Polygon 21"/>
    <polygon id="Polygon_20-6" class="fil0" points="379375,19062 388438,49687 370313,49687 " data-name="Polygon 20"/>
   </g>
  </g>
 </g>
</svg>
