<?xml version="1.0" encoding="UTF-8"?>
<!DOCTYPE svg PUBLIC "-//W3C//DTD SVG 1.1//EN" "http://www.w3.org/Graphics/SVG/1.1/DTD/svg11.dtd">
<!-- Creator: CorelDRAW 2020 (64-Bit Evaluation Version) -->
<svg xmlns="http://www.w3.org/2000/svg" xml:space="preserve" width="1920px" height="50px" version="1.1" style="shape-rendering:geometricPrecision; text-rendering:geometricPrecision; image-rendering:optimizeQuality; fill-rule:evenodd; clip-rule:evenodd"
viewBox="0 0 192000 5000"
 xmlns:xlink="http://www.w3.org/1999/xlink"
 xmlns:xodm="http://www.corel.com/coreldraw/odm/2003">
 <defs>
  <style type="text/css">
   <![CDATA[
    .fil2 {fill:none;fill-rule:nonzero}
    .fil4 {fill:#6E99F5;fill-rule:nonzero}
    .fil3 {fill:#BDDAE6;fill-rule:nonzero}
    .fil1 {fill:#FF3050;fill-rule:nonzero}
    .fil0 {fill:white;fill-rule:nonzero}
   ]]>
  </style>
   <clipPath id="id0" style="clip-rule:nonzero">
    <path d="M-189236 10312l550033 0 0 -15624 -550033 0 0 15624z"/>
   </clipPath>
   <clipPath id="id1" style="clip-rule:nonzero">
    <path d="M-204000 10076l564797 0 0 -15625 -564797 0 0 15625z"/>
   </clipPath>
   <clipPath id="id2" style="clip-rule:nonzero">
    <path d="M-221244 10076l567500 0 0 -15625 -567500 0 0 15625z"/>
   </clipPath>
 </defs>
 <g id="Layer_x0020_1">
  <metadata id="CorelCorpID_0Corel-Layer"/>
  <polygon id="Rectangle_5" class="fil0" points="-204000,10312 360797,10312 360797,-5313 -204000,-5313 " data-name="Rectangle 5"/>
  <g>
  </g>
  <g style="clip-path:url(#id0)">
   <g>
    <polygon id="Path_94" class="fil1" points="-181111,-5313 -172986,-5313 -181111,10312 -189236,10312 " data-name="Path 94"/>
    <polygon id="Path_94-2" class="fil1" points="-132674,-5313 -124549,-5313 -132674,10312 -140799,10312 " data-name="Path 94"/>
    <polygon id="Path_94-3" class="fil1" points="-84236,-5313 -76111,-5313 -84236,10312 -92361,10312 " data-name="Path 94"/>
    <polygon id="Path_94-4" class="fil1" points="-35799,-5313 -27674,-5313 -35799,10312 -43924,10312 " data-name="Path 94"/>
    <polygon id="Path_94-5" class="fil1" points="12639,-5313 20764,-5313 12639,10312 4514,10312 " data-name="Path 94"/>
    <polygon id="Path_94-6" class="fil1" points="61076,-5313 69201,-5313 61076,10312 52951,10312 " data-name="Path 94"/>
    <polygon id="Path_94-7" class="fil1" points="109514,-5313 117639,-5313 109514,10312 101389,10312 " data-name="Path 94"/>
    <polygon id="Path_94-8" class="fil1" points="157951,-5313 166076,-5313 157951,10312 149826,10312 " data-name="Path 94"/>
    <polygon id="Path_94-9" class="fil1" points="206389,-5313 214514,-5313 206389,10312 198264,10312 " data-name="Path 94"/>
    <polygon id="Path_94-10" class="fil1" points="254826,-5313 262951,-5313 254826,10312 246701,10312 " data-name="Path 94"/>
    <polygon id="Path_94-11" class="fil1" points="303264,-5313 311389,-5313 303264,10312 295139,10312 " data-name="Path 94"/>
    <polygon id="Path_94-12" class="fil1" points="351701,-5313 359826,-5313 351701,10312 343576,10312 " data-name="Path 94"/>
    <polygon id="Path_94-13" class="fil1" points="400139,-5313 408264,-5313 400139,10312 392014,10312 " data-name="Path 94"/>
   </g>
  </g>
  <polygon class="fil2" points="-189236,10312 360797,10312 360797,-5312 -189236,-5312 "/>
  <g>
  </g>
  <g style="clip-path:url(#id1)">
   <g>
    <polygon id="Path_94-14" class="fil3" points="-195875,-5549 -187750,-5549 -195875,10076 -204000,10076 " data-name="Path 94"/>
    <polygon id="Path_94-15" class="fil3" points="-147437,-5549 -139313,-5549 -147437,10076 -155563,10076 " data-name="Path 94"/>
    <polygon id="Path_94-16" class="fil3" points="-99000,-5549 -90875,-5549 -99000,10076 -107125,10076 " data-name="Path 94"/>
    <polygon id="Path_94-17" class="fil3" points="-50563,-5549 -42437,-5549 -50563,10076 -58688,10076 " data-name="Path 94"/>
    <polygon id="Path_94-18" class="fil3" points="-2125,-5549 6000,-5549 -2125,10076 -10250,10076 " data-name="Path 94"/>
    <polygon id="Path_94-19" class="fil3" points="46313,-5549 54437,-5549 46313,10076 38188,10076 " data-name="Path 94"/>
    <polygon id="Path_94-20" class="fil3" points="94750,-5549 102875,-5549 94750,10076 86625,10076 " data-name="Path 94"/>
    <polygon id="Path_94-21" class="fil3" points="143188,-5549 151313,-5549 143188,10076 135062,10076 " data-name="Path 94"/>
    <polygon id="Path_94-22" class="fil3" points="191625,-5549 199750,-5549 191625,10076 183500,10076 " data-name="Path 94"/>
    <polygon id="Path_94-23" class="fil3" points="240062,-5549 248188,-5549 240062,10076 231938,10076 " data-name="Path 94"/>
    <polygon id="Path_94-24" class="fil3" points="288500,-5549 296625,-5549 288500,10076 280375,10076 " data-name="Path 94"/>
    <polygon id="Path_94-25" class="fil3" points="336938,-5549 345062,-5549 336938,10076 328813,10076 " data-name="Path 94"/>
    <polygon id="Path_94-26" class="fil3" points="385375,-5549 393500,-5549 385375,10076 377250,10076 " data-name="Path 94"/>
   </g>
  </g>
  <polygon class="fil2" points="-204000,10076 360797,10076 360797,-5549 -204000,-5549 "/>
  <g>
  </g>
  <g style="clip-path:url(#id2)">
   <g>
    <polygon id="Path_94-27" class="fil4" points="-213119,-5549 -204994,-5549 -213119,10076 -221244,10076 " data-name="Path 94"/>
    <polygon id="Path_94-28" class="fil4" points="-164682,-5549 -156557,-5549 -164682,10076 -172807,10076 " data-name="Path 94"/>
    <polygon id="Path_94-29" class="fil4" points="-116244,-5549 -108119,-5549 -116244,10076 -124369,10076 " data-name="Path 94"/>
    <polygon id="Path_94-30" class="fil4" points="-67807,-5549 -59682,-5549 -67807,10076 -75932,10076 " data-name="Path 94"/>
    <polygon id="Path_94-31" class="fil4" points="-19369,-5549 -11244,-5549 -19369,10076 -27494,10076 " data-name="Path 94"/>
    <polygon id="Path_94-32" class="fil4" points="29068,-5549 37193,-5549 29068,10076 20943,10076 " data-name="Path 94"/>
    <polygon id="Path_94-33" class="fil4" points="77506,-5549 85631,-5549 77506,10076 69381,10076 " data-name="Path 94"/>
    <polygon id="Path_94-34" class="fil4" points="125943,-5549 134068,-5549 125943,10076 117818,10076 " data-name="Path 94"/>
    <polygon id="Path_94-35" class="fil4" points="174381,-5549 182506,-5549 174381,10076 166256,10076 " data-name="Path 94"/>
    <polygon id="Path_94-36" class="fil4" points="222818,-5549 230943,-5549 222818,10076 214693,10076 " data-name="Path 94"/>
    <polygon id="Path_94-37" class="fil4" points="271256,-5549 279381,-5549 271256,10076 263131,10076 " data-name="Path 94"/>
    <polygon id="Path_94-38" class="fil4" points="319693,-5549 327818,-5549 319693,10076 311568,10076 " data-name="Path 94"/>
   </g>
  </g>
  <polygon class="fil2" points="-221244,10076 346256,10076 346256,-5549 -221244,-5549 "/>
 </g>
</svg>
