<svg id="Group_64" data-name="Group 64" xmlns="http://www.w3.org/2000/svg" width="96.735" height="85.916" viewBox="0 0 96.735 85.916">
  <path id="Path_153" data-name="Path 153" d="M231.17,59.659l.219-.21c.149-.122.359-.341.63-.534a14.491,14.491,0,0,1,2.275-1.479,18.577,18.577,0,0,1,3.281-1.312,20.125,20.125,0,0,1,3.815-.682,19.023,19.023,0,0,1,3.876.1,16.677,16.677,0,0,1,3.439.8,14.4,14.4,0,0,1,2.441,1.12c.3.157.542.341.7.437a3.08,3.08,0,0,1,.254.175l-.219.219c-.149.114-.359.332-.63.534a14.491,14.491,0,0,1-2.275,1.479,17.334,17.334,0,0,1-3.281,1.312,19.433,19.433,0,0,1-3.815.674,19.118,19.118,0,0,1-3.885-.1,17.307,17.307,0,0,1-3.43-.8,13.808,13.808,0,0,1-2.441-1.085c-.3-.158-.543-.333-.7-.429Z" transform="translate(-163.898 -22.875)" fill="#51b982"/>
  <path id="Path_154" data-name="Path 154" d="M209.087,74.721a10.083,10.083,0,0,1-.744-.98,17.266,17.266,0,0,1-1.426-2.625,20.662,20.662,0,0,1-1.251-3.727,24.429,24.429,0,0,1-.464-8.68,20.934,20.934,0,0,1,.875-3.841,17,17,0,0,1,1.164-2.747,11.37,11.37,0,0,1,.63-1.05,10.077,10.077,0,0,1,.744.98,17.2,17.2,0,0,1,1.435,2.625,20.765,20.765,0,0,1,1.251,3.736,22.986,22.986,0,0,1,.612,4.314,23.268,23.268,0,0,1-.166,4.375,20.28,20.28,0,0,1-.875,3.832,16.819,16.819,0,0,1-1.146,2.747,11.376,11.376,0,0,1-.639,1.041Z" transform="translate(-160.627 -22.336)" fill="#51b982"/>
  <path id="Path_155" data-name="Path 155" d="M190.14,96.644a11.8,11.8,0,0,1,1.129-.691,20.016,20.016,0,0,1,2.984-1.3,25.654,25.654,0,0,1,4.226-1.067,30.082,30.082,0,0,1,4.839-.411,29.253,29.253,0,0,1,4.847.376,24.883,24.883,0,0,1,4.226,1.041,19.96,19.96,0,0,1,3,1.286,12.75,12.75,0,0,1,1.137.682,12.781,12.781,0,0,1-1.129.7,20.022,20.022,0,0,1-2.984,1.3,24.807,24.807,0,0,1-4.226,1.067,29.116,29.116,0,0,1-4.839.4,28.329,28.329,0,0,1-4.847-.385,24.885,24.885,0,0,1-4.226-1.041,20.633,20.633,0,0,1-3-1.277A12.758,12.758,0,0,1,190.14,96.644Z" transform="translate(-158.768 -27.599)" fill="#51b982"/>
  <path id="Path_156" data-name="Path 156" d="M169.135,103.7l-.175-.262c-.087-.175-.262-.42-.411-.735a14.643,14.643,0,0,1-1.041-2.572,18.644,18.644,0,0,1-.7-3.552,20.588,20.588,0,0,1,.8-7.875,18.378,18.378,0,0,1,1.409-3.342,14.411,14.411,0,0,1,1.549-2.3c.2-.28.429-.49.551-.639l.219-.219s.07.1.175.262a6.744,6.744,0,0,1,.411.735,14.993,14.993,0,0,1,1.05,2.572,18.645,18.645,0,0,1,.7,3.552,20.64,20.64,0,0,1-.822,7.875,18.63,18.63,0,0,1-1.409,3.334,15.2,15.2,0,0,1-1.54,2.31c-.21.271-.429.481-.551.63Z" transform="translate(-155.84 -26.228)" fill="#51b982"/>
  <path id="Path_157" data-name="Path 157" d="M238.147,29.056c-7.875,16.52-21,29.889-34.877,41.544-14.507,12.18-30.405,25.129-48.124,32.243-1.514.6-.875,3.1.691,2.476,17.771-7.131,33.538-19.844,48.124-31.989,14.49-12.031,28.218-25.847,36.408-42.97C241.078,28.872,238.865,27.559,238.147,29.056Z" transform="translate(-154.285 -19.501)" fill="#252a3f"/>
  <path id="Path_158" data-name="Path 158" d="M221.907,28.074c4.664,8.54,5.617,18.095,5.25,27.675-.061,1.654,2.511,1.654,2.572,0,.394-10.045-.709-20.037-5.591-28.97-.8-1.452-3.019-.158-2.222,1.295Z" transform="translate(-162.719 -19.219)" fill="#252a3f"/>
  <path id="Path_159" data-name="Path 159" d="M208.85,81.233c12.39-2.021,24.674-4.681,37.248-5.171,1.654-.07,1.662-2.625,0-2.572-12.8.5-25.313,3.2-37.93,5.25-1.627.262-.936,2.747.682,2.485Z" transform="translate(-160.906 -25.139)" fill="#252a3f"/>
  <path id="Path_160" data-name="Path 160" d="M185.8,93.2c4.13-11.593,4-23.992.8-35.8a1.288,1.288,0,1,0-2.485.682c3.089,11.375,3.185,23.239-.8,34.422C182.768,94.075,185.253,94.749,185.8,93.2Z" transform="translate(-157.906 -23.009)" fill="#252a3f"/>
  <path id="Path_161" data-name="Path 161" d="M251.316,33.356c9.625,0,9.677-15.006,0-15.006S241.691,33.356,251.316,33.356Z" transform="translate(-165.511 -17.37)" fill="#da3636"/>
  <path id="Path_162" data-name="Path 162" d="M221.743,32.236c9.625,0,9.669-15.006,0-15.006S212.066,32.236,221.743,32.236Z" transform="translate(-161.812 -17.23)" fill="#da3636"/>
  <path id="Path_163" data-name="Path 163" d="M252.363,80.856c9.625,0,9.677-15.006,0-15.006S242.695,80.856,252.363,80.856Z" transform="translate(-165.64 -24.184)" fill="#da3636"/>
  <path id="Path_164" data-name="Path 164" d="M183.963,61.6c9.625,0,9.677-15.006,0-15.006S174.295,61.6,183.963,61.6Z" transform="translate(-157.089 -21.776)" fill="#da3636"/>
  <path id="Path_165" data-name="Path 165" d="M256.852,50.022c8.277,0,8.295-12.862,0-12.862S248.566,50.022,256.852,50.022Z" transform="translate(-166.331 -19.722)" fill="#da3636"/>
  <path id="Path_166" data-name="Path 166" d="M175.332,75.9c8.269,0,8.286-12.862,0-12.862S167.037,75.9,175.332,75.9Z" transform="translate(-156.139 -23.832)" fill="#da3636"/>
  <path id="Path_167" data-name="Path 167" d="M217.09,46.648c6.895,0,6.912-10.718,0-10.718S210.186,46.648,217.09,46.648Z" transform="translate(-161.489 -20.443)" fill="#da3636"/>
  <path id="Path_168" data-name="Path 168" d="M238.95,90.968c6.9,0,6.912-10.718,0-10.718S232.046,90.968,238.95,90.968Z" transform="translate(-164.223 -25.984)" fill="#da3636"/>
</svg>
