<svg xmlns="http://www.w3.org/2000/svg" xmlns:xlink="http://www.w3.org/1999/xlink" width="1934" height="60.388" viewBox="0 0 1934 60.388">
  <defs>
    <clipPath id="clip-path">
      <rect width="1934" height="60.389" fill="none"/>
    </clipPath>
  </defs>
  <g id="Repeat_Grid_12" data-name="Repeat Grid 12" clip-path="url(#clip-path)">
    <g transform="translate(1 -760.135)">
      <path id="Path_556" data-name="Path 556" d="M26,0H52L26,60.389H0Z" transform="translate(-1 760.135)" fill="#da3636"/>
    </g>
    <g transform="translate(53 -760.135)">
      <path id="Path_556-2" data-name="Path 556" d="M26,0H52L26,60.389H0Z" transform="translate(-1 760.135)" fill="#da3636"/>
    </g>
    <g transform="translate(105 -760.135)">
      <path id="Path_556-3" data-name="Path 556" d="M26,0H52L26,60.389H0Z" transform="translate(-1 760.135)" fill="#da3636"/>
    </g>
    <g transform="translate(157 -760.135)">
      <path id="Path_556-4" data-name="Path 556" d="M26,0H52L26,60.389H0Z" transform="translate(-1 760.135)" fill="#da3636"/>
    </g>
    <g transform="translate(209 -760.135)">
      <path id="Path_556-5" data-name="Path 556" d="M26,0H52L26,60.389H0Z" transform="translate(-1 760.135)" fill="#da3636"/>
    </g>
    <g transform="translate(261 -760.135)">
      <path id="Path_556-6" data-name="Path 556" d="M26,0H52L26,60.389H0Z" transform="translate(-1 760.135)" fill="#da3636"/>
    </g>
    <g transform="translate(313 -760.135)">
      <path id="Path_556-7" data-name="Path 556" d="M26,0H52L26,60.389H0Z" transform="translate(-1 760.135)" fill="#da3636"/>
    </g>
    <g transform="translate(365 -760.135)">
      <path id="Path_556-8" data-name="Path 556" d="M26,0H52L26,60.389H0Z" transform="translate(-1 760.135)" fill="#da3636"/>
    </g>
    <g transform="translate(417 -760.135)">
      <path id="Path_556-9" data-name="Path 556" d="M26,0H52L26,60.389H0Z" transform="translate(-1 760.135)" fill="#da3636"/>
    </g>
    <g transform="translate(469 -760.135)">
      <path id="Path_556-10" data-name="Path 556" d="M26,0H52L26,60.389H0Z" transform="translate(-1 760.135)" fill="#da3636"/>
    </g>
    <g transform="translate(521 -760.135)">
      <path id="Path_556-11" data-name="Path 556" d="M26,0H52L26,60.389H0Z" transform="translate(-1 760.135)" fill="#da3636"/>
    </g>
    <g transform="translate(573 -760.135)">
      <path id="Path_556-12" data-name="Path 556" d="M26,0H52L26,60.389H0Z" transform="translate(-1 760.135)" fill="#da3636"/>
    </g>
    <g transform="translate(625 -760.135)">
      <path id="Path_556-13" data-name="Path 556" d="M26,0H52L26,60.389H0Z" transform="translate(-1 760.135)" fill="#da3636"/>
    </g>
    <g transform="translate(677 -760.135)">
      <path id="Path_556-14" data-name="Path 556" d="M26,0H52L26,60.389H0Z" transform="translate(-1 760.135)" fill="#da3636"/>
    </g>
    <g transform="translate(729 -760.135)">
      <path id="Path_556-15" data-name="Path 556" d="M26,0H52L26,60.389H0Z" transform="translate(-1 760.135)" fill="#da3636"/>
    </g>
    <g transform="translate(781 -760.135)">
      <path id="Path_556-16" data-name="Path 556" d="M26,0H52L26,60.389H0Z" transform="translate(-1 760.135)" fill="#da3636"/>
    </g>
    <g transform="translate(833 -760.135)">
      <path id="Path_556-17" data-name="Path 556" d="M26,0H52L26,60.389H0Z" transform="translate(-1 760.135)" fill="#da3636"/>
    </g>
    <g transform="translate(885 -760.135)">
      <path id="Path_556-18" data-name="Path 556" d="M26,0H52L26,60.389H0Z" transform="translate(-1 760.135)" fill="#da3636"/>
    </g>
    <g transform="translate(937 -760.135)">
      <path id="Path_556-19" data-name="Path 556" d="M26,0H52L26,60.389H0Z" transform="translate(-1 760.135)" fill="#da3636"/>
    </g>
    <g transform="translate(989 -760.135)">
      <path id="Path_556-20" data-name="Path 556" d="M26,0H52L26,60.389H0Z" transform="translate(-1 760.135)" fill="#da3636"/>
    </g>
    <g transform="translate(1041 -760.135)">
      <path id="Path_556-21" data-name="Path 556" d="M26,0H52L26,60.389H0Z" transform="translate(-1 760.135)" fill="#da3636"/>
    </g>
    <g transform="translate(1093 -760.135)">
      <path id="Path_556-22" data-name="Path 556" d="M26,0H52L26,60.389H0Z" transform="translate(-1 760.135)" fill="#da3636"/>
    </g>
    <g transform="translate(1145 -760.135)">
      <path id="Path_556-23" data-name="Path 556" d="M26,0H52L26,60.389H0Z" transform="translate(-1 760.135)" fill="#da3636"/>
    </g>
    <g transform="translate(1197 -760.135)">
      <path id="Path_556-24" data-name="Path 556" d="M26,0H52L26,60.389H0Z" transform="translate(-1 760.135)" fill="#da3636"/>
    </g>
    <g transform="translate(1249 -760.135)">
      <path id="Path_556-25" data-name="Path 556" d="M26,0H52L26,60.389H0Z" transform="translate(-1 760.135)" fill="#da3636"/>
    </g>
    <g transform="translate(1301 -760.135)">
      <path id="Path_556-26" data-name="Path 556" d="M26,0H52L26,60.389H0Z" transform="translate(-1 760.135)" fill="#da3636"/>
    </g>
    <g transform="translate(1353 -760.135)">
      <path id="Path_556-27" data-name="Path 556" d="M26,0H52L26,60.389H0Z" transform="translate(-1 760.135)" fill="#da3636"/>
    </g>
    <g transform="translate(1405 -760.135)">
      <path id="Path_556-28" data-name="Path 556" d="M26,0H52L26,60.389H0Z" transform="translate(-1 760.135)" fill="#da3636"/>
    </g>
    <g transform="translate(1457 -760.135)">
      <path id="Path_556-29" data-name="Path 556" d="M26,0H52L26,60.389H0Z" transform="translate(-1 760.135)" fill="#da3636"/>
    </g>
    <g transform="translate(1509 -760.135)">
      <path id="Path_556-30" data-name="Path 556" d="M26,0H52L26,60.389H0Z" transform="translate(-1 760.135)" fill="#da3636"/>
    </g>
    <g transform="translate(1561 -760.135)">
      <path id="Path_556-31" data-name="Path 556" d="M26,0H52L26,60.389H0Z" transform="translate(-1 760.135)" fill="#da3636"/>
    </g>
    <g transform="translate(1613 -760.135)">
      <path id="Path_556-32" data-name="Path 556" d="M26,0H52L26,60.389H0Z" transform="translate(-1 760.135)" fill="#da3636"/>
    </g>
    <g transform="translate(1665 -760.135)">
      <path id="Path_556-33" data-name="Path 556" d="M26,0H52L26,60.389H0Z" transform="translate(-1 760.135)" fill="#da3636"/>
    </g>
    <g transform="translate(1717 -760.135)">
      <path id="Path_556-34" data-name="Path 556" d="M26,0H52L26,60.389H0Z" transform="translate(-1 760.135)" fill="#da3636"/>
    </g>
    <g transform="translate(1769 -760.135)">
      <path id="Path_556-35" data-name="Path 556" d="M26,0H52L26,60.389H0Z" transform="translate(-1 760.135)" fill="#da3636"/>
    </g>
    <g transform="translate(1821 -760.135)">
      <path id="Path_556-36" data-name="Path 556" d="M26,0H52L26,60.389H0Z" transform="translate(-1 760.135)" fill="#da3636"/>
    </g>
    <g transform="translate(1873 -760.135)">
      <path id="Path_556-37" data-name="Path 556" d="M26,0H52L26,60.389H0Z" transform="translate(-1 760.135)" fill="#da3636"/>
    </g>
    <g transform="translate(1925 -760.135)">
      <path id="Path_556-38" data-name="Path 556" d="M26,0H52L26,60.389H0Z" transform="translate(-1 760.135)" fill="#da3636"/>
    </g>
  </g>
</svg>
